<svg xmlns="http://www.w3.org/2000/svg" width="3456" height="3456" version="1.0" viewBox="0 0 2592 2592"><path d="M1105.6 3.5c-3.1 1.9-7.5 4.9-9.7 6.6-4.3 3.4-30.5 31.7-67.3 72.9-28.9 32.2-143.5 147.5-167.9 168.7-9.5 8.3-24.9 22.2-34.2 30.9-20.2 18.8-26.8 24.6-39.5 34.4-5.2 4.1-13.1 10.8-17.5 14.8-4.4 4.1-10.4 9.3-13.5 11.5-3 2.2-8.4 6.5-12 9.7-3.6 3.1-9.4 7.4-13 9.5C628.9 423.1 558.6 476.6 485.9 549c-73.6 73.3-141.1 162.7-193.4 256-12.7 22.6-40 78.2-50.4 102.5-42.8 100.5-70.9 205.3-84.6 316.5-6.4 52.4-6.8 58.7-7.3 128-.4 68.5 0 80.4 4.4 124 12.6 126.6 47.3 253.4 99.9 366 93.1 198.9 231.1 358.6 414.5 479.5 13.5 8.9 26 17 27.8 18.1 1.7 1 3.2 2.1 3.2 2.5 0 .3-1.9 1.5-4.2 2.5-2.4 1-9.2 4.9-15.3 8.5-6 3.6-18.2 10.3-27 14.8s-17.2 9.5-18.7 11.1c-4.3 4.6-5.3 10.2-3.3 17.7 2.4 8.9 6.5 16.9 14.4 28.6 25.3 37 59.6 61.3 102.6 72.7 18.8 5 29.2 6.4 49 6.4 16.2-.1 19-.3 27.7-2.7 5.4-1.4 13.9-4.7 19-7.3 7.8-4 10.9-6.4 19.3-14.8 11.1-11.2 17.9-21.6 23.5-36 1.9-4.7 3.7-8.6 4.1-8.6.4 0 8.8 2.9 18.6 6.4 16.6 5.9 37.8 12.9 58.6 19.1 8.1 2.5 8.7 2.8 8.7 5.3 0 1.5-3.4 20.2-7.5 41.7-4.1 21.4-7.5 40.4-7.5 42.3 0 3.7 1.9 7.9 4.8 10.5 1.3 1.2 7.9 3 19.8 5.3 28.3 5.5 63.5 11.4 68.2 11.4 4.7 0 8.7-1.7 11.5-4.8 2.2-2.4 10.2-39.4 17.2-79.6l.6-3.8 4.2.5c2.3.3 13.4 2.1 24.7 4 11.3 1.9 22.6 3.8 25.2 4.2 3.4.4 4.9 1.1 5.3 2.6 1.1 3.3 5.2 7.5 9.2 9.2 3.2 1.5 13.4 2.1 69.8 4 36.3 1.3 67.5 2 69.3 1.6 1.8-.4 5-1.9 7-3.3 2.5-1.7 5.4-2.7 8.6-2.8l4.8-.3 3.7 10.5c4.6 12.8 8.4 20.3 14.9 29.5 25.1 35.5 69.6 49.9 127 40.9 20-3.1 30.8-6.1 43-11.9 13.4-6.4 22.8-13.3 33.6-24.5 8.3-8.7 10-11.1 15.4-22.1 3.3-6.8 7.2-16 8.6-20.3 3-9 6.6-25.9 6.6-30.5 0-3.5 2-4.7 9.4-5.7l4.1-.6 5 10.4c17.2 36 45.2 61.8 80 73.6 15.5 5.3 27.2 7.3 46.7 7.9 30.8 1 52.5-3.6 77.8-16.3 18.6-9.3 39.4-29.9 53-52.5 10.5-17.5 19-42.7 21-62.7.6-5.3 1.2-9.7 1.4-10 .3-.2 1 1.6 1.6 3.9 3.1 11.8 13.5 48.5 18.6 65.4 3.1 10.4 6 20.5 6.6 22.4 1.3 4.4 4.7 7.7 9.2 9 3.2.8 6.2.4 19.9-3 43.3-10.6 93.6-28.1 120.6-41.9 22.3-11.3 46.7-29.4 57.7-42.8 6.3-7.6 13.2-20.7 16.4-30.7 3.4-10.6 3.9-29.8 1.1-43-4.6-22.7-19.5-42.9-40.2-54.6-3.3-1.9-6.6-3.9-7.4-4.4-1.2-.8-.6-2.8 4-11.8 7.6-15.1 10-25.9 9.2-41.5-.6-13.1-2.6-21.2-8.3-33.2l-3.6-7.8 32.5-32.3c37.2-37.1 56.1-58 85.8-94.9 150.6-186.7 234.5-400 253.4-644.6 2.3-29.2 1.7-141.8-.9-168.4-6-62.6-12-101.4-23.7-154.5-30.9-139.5-84.4-267.5-159.6-382-43.2-65.6-86.9-119.6-143.8-177.4-47.7-48.4-81.8-78.3-132-115.7-138.5-103.1-290.7-170-467-205.2-10.6-2.1-9.9.1-6.6-21.7 1.1-7.7 2.1-16.8 2.1-20.3 0-8-1.8-19.9-3.5-23.3-2.2-4.2-9.1-9.7-13-10.5-10.8-2-25.4 2.5-40.8 12.4-12.7 8.3-33.3 19.4-35.1 19-.8-.2-11.2-7.7-23.2-16.8-25.6-19.3-38.3-28.2-66.9-46.7-11.5-7.5-23.5-15.8-26.5-18.5-3-2.7-10.2-8.1-16-11.9-5.8-3.8-23.1-16.3-38.5-27.8-46.5-34.7-74.6-53.6-90.7-61.1-10.4-4.8-24-8-34.4-8-8.5 0-9.3.2-14.8 3.5zm32.9 7.8c20.6 6 38.5 17.4 105.4 67.1 62.2 46.3 62.2 46.3 76.1 55.1 26.5 16.7 35.2 22.7 54 37.1 40.5 31 75 55.9 79.7 57.5.9.3 1.2 16.2 1.5 63l.3 62.5-6.9 5c-3.8 2.7-9.9 8.2-13.6 12.2-8.2 8.8-11.4 16.8-12.7 30.7l-.8 9-3.7.6c-2 .3-5.2 1.7-7 3.1-1.8 1.4-7.3 5.8-12.3 9.7-4.9 3.9-9.6 7.1-10.2 7.1-1.8 0-1.6-3.2 1.1-22 3.3-22.9 4.4-57.2 2.2-72.5-.9-6.1-2.3-13.4-3.2-16.4-3.6-12.6-13.1-27.3-22.9-35.7-3.2-2.7-10.1-8.6-15.3-13.2-25.9-22.4-72.2-46.8-96.5-50.7-5-.8-18-1.9-28.8-2.5-46.5-2.4-101 4.7-131.9 17.2-6.9 2.8-19.3 7.6-27.6 10.8-13.3 5-16.9 6.9-29.5 15.5-32.1 21.9-61.5 44-71.7 53.9-16.7 16.2-39.6 43.2-46.2 54.8-2.4 4-5.6 9.2-7.2 11.5-1.6 2.3-4.3 7.3-6.1 11-2.8 6-3.2 8-3.5 17.5-.3 6.1 0 12.1.6 13.8.6 1.6 7.9 14.1 16.2 27.6 8.4 13.5 16.5 27.4 18 30.8 3.6 7.8 9 25.8 9 29.7 0 1.6-2.9 8.6-6.6 15.7-3.6 7-9 18.8-12.1 26.2-3 7.4-6 13.8-6.6 14.2-1.4.8-9.9-3.7-17.2-9.1-2.7-2.1-10.4-6.6-17-10.1s-14.7-8-18.1-10.2c-7.6-4.7-18.3-9.7-64.7-30.4-31.5-14-39.1-17-53.5-21-22.8-6.2-48.7-12.4-73.2-17.4-26.3-5.4-34-9.3-34-17.2 0-6.9 5.4-11.9 46.5-43 19.5-14.7 31.7-24.7 53.2-43.5 7.6-6.7 20.8-17.9 29.3-24.9 19.1-15.7 34.3-29.1 56.9-49.9 20-18.3 31.2-28.3 49.6-44.5 15.3-13.3 62.8-59.1 80-77 6.6-6.8 22.4-23 35-36 12.7-13 29.3-30.5 37-39 50.9-56.4 72.3-78.7 79-82.6 6-3.5 6.1-3.5 15.5-3 5.2.3 11.8 1.1 14.5 1.9zm354.7 160.4c1.6 1.5 3.6 4.1 4.5 5.6 2.1 4.1 1.8 22.1-.7 39.7-1.1 7.9-2 16.5-2 19s-.7 7.9-1.6 12c-1.3 6.1-1.7 16.1-2.1 53.2l-.5 45.8h-4.6c-2.6 0-7.3.4-10.5 1-6.7 1.1-8.5.6-9.2-2.4-1.1-4.3-3.2-69.3-2.4-75.1.4-3.3.8-17.1.8-30.6.1-23.4 0-24.7-1.9-26.4-1.8-1.7-2.6-1.7-8.5-.6-7.4 1.3-6.6 1.6-19-6.4-6.8-4.4-10.6-8.1-9.3-9 .2-.1 3-1.6 6.3-3.4 3.3-1.8 13-7.4 21.5-12.5 23.7-14 32.6-16.2 39.2-9.9zm-243.1 57.6c12.7 2.3 16.2 3.3 27.8 8.6 31.2 14.1 49.6 25.8 73.1 46.6 16.7 14.7 18.4 16.6 22.5 24 3.2 5.9 5.2 11.5 7.5 21 3.1 12.9 3.1 13.1 2.5 32-1.1 32.5-2.3 45.5-5.6 57.8l-1 3.8-1.7-2.3c-1-1.3-2.6-4.8-3.6-7.8-3.6-11.2-14.8-23.6-23.3-25.9-5.3-1.5-15.4-1.4-25.1.4l-8.4 1.4-5.6-2.9c-3.4-1.7-11.3-4.1-19.2-5.9-28.6-6.3-46.3-13.2-48.9-18.9-2.3-4.9-1.3-10.5 3-17.3 11.7-18 33.7-34.1 50.5-37 7.9-1.3 9.4-2.2 9.4-5.5 0-3.4-2.8-4.4-12-4.4-18.8 0-52.3 12.8-78.5 30.1-10.8 7.1-21.7 17.2-34.6 32-3.1 3.5-6 6.1-6.5 5.6-.4-.4-.8-3.8-.8-7.5.1-12.2 9.7-35.1 21.9-52 6.6-9.2 7.3-11.6 3.8-12.9-2.6-1-13.4 5.3-22.6 13.2-16 13.8-30.6 32.4-41 52.4l-5.3 10-35.4 17.8c-38.2 19.2-49.1 25.9-73.3 45.2-16.9 13.5-44.8 41.3-56.1 56.1-4.9 6.3-9.5 11.5-10.3 11.5-.9 0-2.8-3.4-4.9-9-6.2-15.9-13.6-29.6-23.5-43.5-2.5-3.6-7-11.2-10-17-5.3-10.3-5.4-10.7-5.3-18.5.2-11 2.8-17.4 12.8-32.4 21.3-31.8 47.3-59 77-80.5 5.4-3.9 14.5-10.5 20.2-14.8 26.9-19.9 35.6-24.5 70.4-36.8 30.1-10.6 40.7-13.2 67.8-16.6 20.5-2.5 34.4-3.2 56.7-2.9 17.3.2 23.6.7 35.6 2.8zm275.9 17.9c1 .6.4.7-2 .3-1.9-.3-3.9-1-4.5-1.6-1.2-1.2 4.1-.2 6.5 1.3zm22.5 4.3 5 1.3-4.8.1c-6 .1-18.2-2.6-19.7-4.3-.8-1.1.4-1.1 6.7.1 4.3.8 10.1 2 12.8 2.8zm-35.5 2.6c3.6 1.1 14 4 23.3 6.5 29.1 7.7 32.7 9.9 32.7 19.6 0 4.4-.6 5.9-4.4 11.2-6.3 8.8-13.5 15.2-27.1 24-6.6 4.3-16.1 10.9-21.1 14.7-9 6.8-14.1 9.5-15.3 8.3-.9-.9-.7-71.9.2-79.7 1-7.8 1.2-7.9 11.7-4.6zm63.4 5c62 15.6 132.8 40.6 194.1 68.4 92.7 42.1 185.4 101.2 264 168.4 32.8 28.1 83.2 77.1 107.1 104.1 164.9 186.6 259.1 399 285.3 643 5 46.6 5.6 58.2 5.6 113.5 0 53.9-.7 70.1-4.6 112-20.1 216.6-98.7 415-233.9 591-32.8 42.6-76.9 90.9-119.3 130.7l-11.7 11.1-6.3-5.9c-3.4-3.3-8.5-7.6-11.3-9.6-7.3-5.3-22.6-12.4-31.9-14.8-21.4-5.5-63.3-4.8-97.6 1.6-22.4 4.1-100.2 25.5-105.7 29-3.9 2.5-6.2 7.4-6.2 13v5.1l-7.7.7c-21.6 1.8-49.9-.5-85.1-6.9-23.3-4.3-61.2-15.3-76.2-22.2-8.2-3.7-16.3-10.9-27.1-24-13.6-16.5-54-90.8-52.6-96.7.3-1.1 3.1-9.3 6.1-18.1 13.2-38.2 20.7-81.6 20.5-119.2 0-9.2-.5-20-1-23.8-1.6-10.7-2.3-30.5-1-30.5.5 0 1.3.4 1.6 1 1.3 2.1 4.4.8 15.3-6.6l11.4-7.5 13.2 6.7 13.2 6.8 2.9-2.2c1.7-1.2 6.4-3 10.5-4.1 4.1-1 10.9-3.4 15-5.3s12.5-5.4 18.5-7.7c13.5-5.3 31.6-15.3 36.8-20.4 5.4-5.4 7.7-10.8 7.7-18.7 0-10-2.7-14.6-15.5-26.8l-10.7-10.3 2.1-4.2c23-46.2 38.1-91.9 44.6-135.2 4.1-26.8 4.3-27.9 5-29.8 1.6-4 3.7-1.4 12 15.3 7.3 14.6 20.6 33.4 27.9 39.4 9 7.3 23 12.3 37.7 13.3l8.5.6 9.3-4.7c32-15.9 49.9-42.3 55-81.1 2.5-18.9 3.2-28.7 4.1-58.5.5-17.3 1.4-37.1 2-43.9 1.9-19.8.8-68.6-1.9-83.1-9.2-49.9-31.2-92.7-68.3-132.6-16.3-17.6-24.8-25-47.5-41.3-28.3-20.3-38.1-27.9-41.6-32.3l-2.9-3.6 1.7-14.9c.9-8.1 5-34.9 9.1-59.6 6.6-40 7.4-46.2 7.4-58.1 0-18.3-1.4-22.4-13.6-40.7-5.2-7.9-12.1-17-15.2-20.3-10.6-10.9-26.8-21.8-40.4-27.2-10.2-4.1-32-10.2-45.8-12.9-7.1-1.4-18.9-4.5-26.2-6.9-18.9-6.3-26.3-7.6-43-7.6-14.6 0-25.4 1.4-107.6 14-11.2 1.7-21.3 3-22.5 2.8-3.3-.5-5.6-6.5-8.2-22.4-4.6-27.6-5-33.5-4.3-58.5.4-12.9 1.2-28.1 1.8-33.9l1.1-10.5 6.4-9.5c3.5-5.2 11.5-15.2 17.7-22.2 30-33.5 38.7-68.7 28.2-114-1.5-6.5-2.5-12-2.2-12.4.4-.3 1.9.1 3.5.9 1.5.8 4.6 1.8 6.9 2.1 3.5.6 4.3 1.2 5.8 4.7 2.7 6.1 6.7 8.1 14.5 7.6 8.3-.6 10.6-2.4 15.9-12.6l4.3-8.2 3.1 4.3c4.5 6.4 6.5 7.8 11.3 7.8 3.5 0 5.4-.8 10.3-4.5 6.5-4.9 8.2-7.9 10.2-18.3 2.3-11.3.9-18.6-5.9-33.1-11.3-23.9-15.4-39-20.5-75.6-1.4-9.9-3.2-25.9-4.1-35.5-2.8-30.7-8.4-56.4-16.6-75.4l-4.1-9.6 3-3.5c8.2-9.2 12.4-22.2 12.4-37.4 0-11.3-2.3-19.4-7.9-28.9-3.5-5.9-14.3-17.3-20.8-21.9l-3-2.2 3-3.1c1.7-1.7 5.2-4.6 8-6.3 27.4-17.4 44.7-30.3 49.4-36.9 7.9-11.3 8.6-12.8 8.6-20.8 0-10.2-2.8-15.7-10.7-21.2-5.8-4.1-7.2-5.6-4.2-4.4.9.4 7.1 2 13.8 3.7zm-326.5 64.6c-15.8 16.2-19.9 23.4-19.9 34.6 0 5.9.1 6.2 4.8 10.7 2.6 2.5 6.9 5.6 9.4 6.8 5.6 2.6 30.7 9.9 47 13.7 17.1 3.9 16.9 3.4 6.4 14.6-6.9 7.5-9.7 11.4-13.7 19.4-5.6 11.3-6.6 17.8-2.9 19 1.7.5 4-1.2 11.3-8.2 5.2-4.9 11.9-10.2 15.2-12 10.3-5.4 23.4-6.6 29.5-2.6 1.4.9 3.6 2.2 4.8 2.9 3.1 1.6 19.5 20.4 22.9 26.1 4 6.9 13.4 32.1 14.3 38.8.5 3.3 2.5 13.6 4.4 23 2 9.3 3.6 18.5 3.6 20.3v3.4l-6.2-5.6c-3.5-3.1-9.6-7.2-13.7-9.3-6.8-3.3-8.4-3.7-17.5-4.1-11.8-.5-24.6 2-33 6.6-7.1 3.8-22.7 19.4-26 25.9-1.5 2.9-2.9 5.3-3.3 5.3-.3 0-.3-.3 0-.7.4-.3.3-1.1-.3-1.7-1.2-1.6.5-30.3 2.5-39.5 2.3-10.8 7.1-22.6 10.6-25.5 4.2-3.5 3.7-8.6-.8-8.6-6.8 0-14.5 17.4-18.8 42.4-2 11.9-2 49.3 0 58.6.8 3.6 1.4 6.9 1.5 7.5 0 .6-7.1 1-19.2 1-20.1 0-24.5.6-39 5.1-26.4 8.3-45.1 35.2-43.6 62.7.4 7.5.9 9.1 6.1 19.4 3.2 6.2 6.2 11.3 6.7 11.3 1.3 0 4 5.4 4 7.9 0 4.4-16.3 22.2-29 31.5-8.6 6.4-10.8 7.4-21.4 10.3-8.1 2.3-10.3 2.5-20.6 2-13.1-.7-23.1-2.6-33.4-6.3-8.3-3.1-22.5-6.3-27.8-6.4-5.6 0-14.8 3.8-19 7.9-6.2 6.3-7 13.2-2.7 24.5 1.5 4.2 4 7.1 13.6 16.2 13.5 12.7 31.1 26.2 39.8 30.6 22.3 11.4 37.4 17.5 49.5 20.2 6.9 1.5 17.7 4.4 24 6.3 16.6 5 31.8 6.6 56.5 6 11-.4 23.8-1.3 28.5-2.1 4.7-.8 17.3-2.7 28-4.1 20.6-2.7 27.7-4.4 43-10.2 34.4-13 68.4-38.1 85.4-63 5.2-7.7 7-14.8 4.7-19.1-1.8-3.4-12.7-8-24.1-10.3-17.8-3.5-32.1-9.1-37.1-14.6-5.5-6-5.9-7.1-5.9-18.1 0-22.2-5.9-38-20.9-55.7-2.8-3.2-5.1-6.5-5.1-7.1 0-.8 3.1-1.4 9.3-1.8 44.2-2.9 56.1-3.7 56.8-4.2 1.6-.9 1-4-1.2-6.9l-2.2-2.7 6.7-13.1c3.6-7.3 6.6-14 6.6-15 0-3.8 1.7-1.3 3.9 5.5 3.2 9.9 11.5 25.9 16.3 31.3 2.2 2.5 6.1 5.7 8.7 7 2.5 1.3 7.8 4.6 11.7 7.4 24.6 17.3 39.3 40 45.4 70.3 2.5 12.1 2.6 22.9.5 41-2.4 20.6-8.9 33.9-28 57.3-9.8 11.9-29.5 38.2-38.7 51.6-12.2 17.6-28 29.7-48 36.8l-10.3 3.6h-41c-22.5 0-43.2.4-46 .8-2.7.5-9.3 2.5-14.5 4.4-44.2 16.3-49.5 18-58.6 18.8-16.4 1.2-41.5-1.9-61.6-7.7-11.9-3.4-14.1-3.2-13.6.9.2 2.3 1.5 3.3 7.8 6.4 8.4 4.3 16.4 6.1 36 8.3 16.8 2 32.4 2 41.4.1 3.8-.8 11.4-3.2 17-5.4 5.5-2.2 17.3-6.5 26.1-9.7 15.7-5.7 16.3-5.8 31-6.7 16-1 26.5-1.1 55-.6 16.2.3 18.8.1 26.3-1.9 12.5-3.4 25.3-9.3 31.4-14.4 2.9-2.5 7.2-5.7 9.4-7.1 3.6-2.2 8.9-7.7 18.8-19.2l2.5-3 .1 28.5c0 30.9 1.3 46.5 5.5 67.7 3.8 18.8 18.9 52.9 35.6 80.4 3.3 5.3 5.9 10.2 5.9 10.7 0 .6-1 2.6-2.2 4.6-2.1 3.2-2.8 3.5-6.8 3.5-2.5 0-7.1-1-10.4-2.4-12-4.9-17.7-5.1-44.3-1.6-36.5 4.9-38.5 5.4-49.9 11-8.6 4.3-12 6.8-23 16.9-21.1 19.4-44.6 44.3-48.1 50.9-4.6 8.5-6.6 16.5-6.1 23.6.4 5.1.9 6.4 3.3 8.5 2.6 2.2 3.5 2.4 10.4 2 8.6-.5 12.4-2.2 39.9-17.6 17.7-9.8 29.1-13.7 44.7-15.2 5.5-.6 16.5-1.7 24.5-2.6 8-.8 18.3-1.4 23-1.2l8.5.3-.1 3c-.2 3.3-3.7 13.2-5.7 15.8-1.3 1.7-15.2 6.1-39.8 12.7-17.5 4.6-23.5 7.4-29.7 13.8-8.3 8.6-12.3 15-18.1 28.9-8.9 21.2-17.3 39.1-27.7 58.4-9.9 18.6-10.9 22.1-8 27.7 2.3 4.3 9.6 10.8 15.6 13.8 10.6 5.3 27.5 4.3 40.9-2.6 8.3-4.2 12.4-7.7 18.2-15.5 7.2-9.7 20.9-25.5 22-25.5 1.6 0 1 2.6-5.6 25.3-9.8 34-16.5 60.8-16.5 66.3 0 5.7 4.3 15 8.6 18.3 3.4 2.7 3.1 6.3-1.3 13.3-5.7 9.5-13.1 16.2-23.5 21.4-7.7 3.9-10.1 4.6-14.9 4.6-7.8 0-23.3-6.4-35.9-14.7-5.2-3.5-12.5-7.8-16.1-9.6-8.2-4-10.5-3.7-23.6 3.2-14.6 7.6-24.2 9.4-36.5 6.8-11.9-2.5-31.8-15.9-42.3-28.6-10.7-12.9-11.1-13.9-16.9-47.8-6.8-39.5-17.9-81.7-26.9-102.5-11.4-26.2-18.8-39.6-29.9-53.5-22.4-28.1-27.4-33.1-43.5-44l-14.8-10V1077c-.1-31.8-1.1-47.5-3.5-50.5-.4-.6-1.3-4.1-1.9-7.9-1.6-8.9-6.1-26.4-10.1-39.1-3.5-10.7-19.1-43.1-24.5-50.5-3.6-5.1-20.7-38-19.7-38 .4 0 4.8.9 9.7 1.9 10.9 2.4 45 6.5 47 5.7 2.6-1 1.7-4.4-1.6-6.1-3.2-1.7-8.7-2.9-33-7-16.5-2.9-27.8-6.5-43.4-14.1-7.5-3.7-11.8-6.9-26.3-19.7-17.9-15.8-23.7-22.6-30.4-35.3-5.7-10.9-8-20.7-8.5-37.1-.7-18.1.9-26.3 7.7-40.4 9.9-21 13.8-36.8 14.9-61.9.6-13.5 1.2-17.5 3-22.3 1.3-3.2 2-6.4 1.7-7.2-1-2.6-5.9-1.7-10.5 2-2.4 1.9-4.7 3.5-5.1 3.5-2.4 0-1.1-19.3 2-30.5 1.2-4.2 1.9-8.3 1.6-9.1-1-2.5-4.8-1.5-9.3 2.6-2.4 2.3-4.7 3.8-5.2 3.6-.5-.3-1.2-3-1.5-6-.6-4.5-.1-8 3-19.8 18-70.1 57.1-125.9 117.9-168.3 28.6-19.9 78.2-45.5 88.3-45.5h3.7l5.9-13.2c3.3-7.2 7.6-15.2 9.6-17.7s6.4-8.5 9.8-13.3c5.8-8.1 13.6-15.7 14.8-14.5.3.3-1 4.5-3 9.4-7.7 19.5-9 29.9-5.1 43.1 1.7 5.7 4.4 8.2 9 8.2 2.8 0 3.4-.6 6.4-6.8 6.7-13.6 20.4-29.6 32.1-37.3 18.3-12.1 38.5-22.5 44.4-22.8 1.4-.1-.6 2.5-6.5 8.6zm255.1 35.9c16.5 7.9 25 22.2 25 41.9 0 9.2-1.8 17.2-5.8 25.4l-2.7 5.6-7.6 1c-6.7 1-8.4 1.7-13.3 5.3-3.6 2.8-7.3 4.6-10.8 5.3-2.9.6-7.6 2.2-10.5 3.6-2.8 1.3-7.4 2.6-10.1 3-4.5.5-5.9.1-13.6-3.6-13.7-6.8-20.4-16.3-23.4-33.3-3-16.9 1.1-31 12.3-41.7 11.3-10.8 26.8-16.2 45.5-15.8 7.2.2 9.5.7 15 3.3zm-158.6 36.9c6.5 2.8 11.2 8 14.2 15.8 1.5 4 3.8 9.4 5.1 12.1 2 4 2.3 5.3 1.4 7.3-1 2.2-1.4 2-11.3-8.1-13.2-13.5-16.5-15.1-30.3-15.1-8.7 0-10.9.4-16.8 2.9-3.8 1.5-7 2.6-7.3 2.4-.7-.8 7.9-8.8 12.9-12 9.7-6.2 24.2-8.6 32.1-5.3zm-669.6 11.4c-.1.5-8 6.8-17.5 14.1-20.2 15.4-27.3 23-27.3 29.3 0 5.2 3.2 11.7 7.3 15.1 7.7 6.2 13.5 8.3 34.3 12.5 31.2 6.4 61.2 14.1 90.4 23.3 11.2 3.5 86.1 36.7 93.8 41.5 3 1.9 12.9 7.7 22 13 9.2 5.2 18.3 10.8 20.2 12.3 1.9 1.5 6.7 4.8 10.6 7.4l7.1 4.7-2.4 8.2c-3.2 11-4.5 27.1-3.7 44.4.7 15.6 1.2 16.8 6.4 16.1 2-.3 3 0 3 .8 0 3.5 3.1 24.6 4 26.9.8 2 1.6 2.5 4.6 2.5h3.7l-.6 8.7c-.9 13.4-3.1 21.5-11.8 42-9.1 21.5-10.9 29.2-10.9 46 0 23.1 6.7 42.3 21.4 62 7.6 10.1 37.9 35.4 49.1 41.1 3.3 1.6 7 4.1 8.1 5.3 3.8 4.2 12.2 17.4 17.5 27.5 2.9 5.5 7.5 13.7 10.4 18.4 14.5 23.9 23.6 44.5 30.5 68.9 3.2 11.2 3.8 17.2 1.8 18.9-2.2 1.8-13.6 5.2-17.2 5.2-6.1 0-40.1 6.9-64.1 12.9-25.5 6.5-32.8 7.9-59 11.5-9.9 1.4-21.5 3.4-25.8 4.5-4.2 1.1-18.4 3.4-31.4 5.1-13.1 1.7-40.2 6.4-60.7 10.5-20.4 4-54.4 10.6-75.6 14.4-35.1 6.5-39.7 7.6-52 12.2-7.4 2.8-19.1 7.9-25.9 11.3-10.6 5.3-13.2 7-18.8 12.9-10.7 11.4-14.8 17.8-20 31.2l-4.8 12.4-7.5.3c-4.1.2-12.4 0-18.5-.4-6-.3-20-1.1-31-1.7-21.5-1.1-71.4-4.6-88.5-6.1-5.8-.6-17.1-1-25.2-1-14 0-14.8.1-17.5 2.4l-2.7 2.4-.3 37.8c-.1 20.9-1 51.4-1.9 68-1 16.5-1.5 30.7-1.2 31.6 1 2.6 18.6 3.6 25.2 1.4 3.1-1 11.4-2.1 21.1-2.6 8.8-.6 19.8-1.5 24.5-2.2 4.7-.6 22.9-1.5 40.5-2 17.6-.4 40.6-1.1 51.2-1.4l19.1-.6.4 10.9c.2 5.9 0 12.1-.4 13.8-.4 1.6-.8 7.9-.8 14 0 6-.7 20.7-1.6 32.5-.8 11.8-1.9 30.7-2.4 42-.8 18.8-2.2 35.8-5 58-.5 4.7-1.7 14.6-2.6 22-2 18.1-5.8 44.7-9.4 66.2-1.7 9.7-3 19.2-3 21.2 0 3.4.4 3.8 5.4 6.3l5.3 2.6 14.9-5.6c16.2-6.1 31.3-10.7 34.9-10.7 3 0 3.3 1 4 14.2.7 12.3-.2 23.7-4.6 61.1-1.4 11.3-5 25-9.4 35.2-2.1 4.9-3.5 9.7-3.5 12.2 0 4 .2 4.2 3.3 4.7 18.6 2.8 27 3.6 37.1 3.6h11.9l-.7 20.7c-2 63.8-3.5 186.1-2.2 188.1 1.8 3 22.7-.3 31.5-4.9 7.8-4.2 12.1-3.9 22.9 1.5 10.6 5.4 21 12.6 29.5 20.6 7.8 7.3 10.1 7.6 17.7 2.5 5.8-3.9 8.7-4.9 21.5-7.1 23.8-4.2 43.7 4 60.5 25.1 5.4 6.7 6.2 8.6 8 17.8 1 4.7 1.6 6 4 7.2 4.6 2.4 8.2 1.8 27.4-4 22.4-6.8 34.9-9.5 43.8-9.5h6.9l19.8 14.4c12.8 9.4 23.6 16.3 30.5 19.8 9.6 4.8 10.7 5.6 11.2 8.4.8 4.3-2.2 26.6-5.2 38.6-3.7 14.8-3.2 16.8 4 16.8 3.1 0 5.5-1 10.1-4.1 6.1-4.1 18.8-10.9 20.3-10.9.5 0 1.4 6.9 2.1 15.3.6 8.3 1.9 17.8 2.8 20.9 1.4 5.4 1.8 5.8 4.5 5.8 2.5 0 3.6-1.1 8.8-9.2 8-12.6 8.7-13.6 11.7-15.5 2.3-1.6 2.6-1.6 3.7-.1.7.9 1.8 5.4 2.5 9.9 1.4 9.1 4.8 16.8 11.6 26.4 5.5 7.7 16.8 18.6 22.2 21.4 8.1 4.1 10.3 2.6 10.3-7.1 0-7.9.4-8.1 7.8-4.4 8.9 4.6 8.4 3.5 8.3 19.2-.4 40-3.4 82.4-6.3 88.2-1.5 2.8-5.7 5.2-9.3 5.2-1.4 0-7 2.3-12.5 5-8.8 4.4-10.7 5-16.2 5-5.6 0-7.5-.6-16.3-5-5.6-2.8-12.6-5.5-15.9-6.1-7-1.3-17.1-.4-24.2 2-3.7 1.2-6 1.4-9 .8-6-1.3-19.2-.2-25.5 2.2-20.6 7.8-36.9 28.2-36.9 46v5.6l-4.4-7.8c-12.3-21.6-32.1-43-51.6-55.9-21.8-14.5-39.8-21.7-64.5-26-17.3-2.9-42-2.3-58.9 1.6-25 5.8-39.5 12.8-52.9 25.5-17.8 17-25.5 37.5-24.4 65.1 1 25.5 8.3 42.3 28.6 65.5 3.3 3.8 5.7 7.1 5.2 7.3-2 .7-56.1-34.7-85-55.6-32.7-23.5-64.2-48.8-96.1-77-20.3-17.9-71-68.5-88.5-88.2-54-61-98.4-122.6-138.7-192.5-31.2-54.1-62.9-121.9-82.1-175-69.8-194-87-395-50.6-595.7 10.4-57.5 22.1-102.8 40.8-157.8C289.6 787.7 413.3 611.3 588 470.9c22.1-17.8 36.6-28.6 59.5-44.3 11-7.6 21.8-15.1 24-16.7 4.1-2.9 5.9-3.6 5.3-2zm747.6 15.4c1.1 7.4 6.1 16.4 12.5 22.7 3.3 3.2 6.8 6.1 7.8 6.4 1.8.6 1.9 1.8 1.5 21.9-.2 11.6.1 25.5.7 30.7 2.9 25.7 3.5 42.8 2.3 63.8-1.3 22.7-4.3 45.5-6.5 49.9-4.3 8.2-8.6 7.8-16-1.3-10-12.3-13.1-19.9-20.7-50.9-10.3-42.1-24-106.9-24-113.8 0-3 .8-4.2 5.8-8.5 13-11.2 31.8-25.2 33.8-25.2 1.8 0 2.3.8 2.8 4.3zm95.7 32.2c8.5 17.5 14.2 45.4 17.4 85 2.7 33.9 11.2 74.2 19.2 91.4 8.3 17.9 10.3 23.7 10.3 30.4 0 11.9-4.4 20.1-10.4 19.5-3.8-.4-6.3-3.9-10.6-15-6.3-16.6-7.7-24-11-56.3-5.9-59.1-11.1-104-13-113-2.6-11.8-7.2-25.6-12.6-38-2.4-5.5-4.4-10.5-4.4-11.1 0-.7 1.4-2.4 3.1-3.9 3-2.5 3.2-2.5 5.1-.8 1.1 1 4.2 6.3 6.9 11.8zm-23.3.3c4.1 4.1 11 22.7 14.1 37.9 7 35 11.5 71.1 13.6 109.8.4 6.6 1.3 16 2.1 21 3.5 23 5.3 44.1 4.4 50.8-1.8 12.2-4.9 16.7-11.4 16.7-4.2 0-4.8-2-4.4-15.2.9-35.4.1-100-1.6-117.8-2.5-27-7.9-52-18.1-83.9-5-15.9-5.7-21.1-2.5-21.1 1.1 0 2.8.8 3.8 1.8zm-34.8 21.3c1 10.2 2.3 19.6 2.9 21 .5 1.3 1.7 7.3 2.6 13.4.9 6 2.8 16.8 4.2 24 5.8 29.7 4.4 70.2-3.5 100.5-1.9 7.4-2 7.5-5.1 7.3-3.1-.1-7.2-2.5-14-8.1l-3.4-2.9 2.7-4c3.8-5.7 5.2-11.1 7-26 4-34.3 4.2-56.4 1-100.3-2.1-27.9-.8-47.8 2.8-44.2.5.5 1.7 9.2 2.8 19.3zm23.7 1.1c-.3.8-.6.5-.6-.6-.1-1.1.2-1.7.5-1.3.3.3.4 1.2.1 1.9zm-10.8 2.4c1.6 3.7 8.9 34.9 11.2 48.4 6.3 36.7 7.8 97.3 2.9 114.3-1 3.3-1.5 3.8-3.8 3.5-1.7-.2-3.5-1.5-5-3.8-2.6-3.9-2.6-4.6.2-20.5.9-5 2-13.1 2.6-18 1.3-11.7 1.3-46.7 0-57.5-1.8-14.9-5.1-35.1-7.5-46.5-2.9-13.4-4-22.5-2.7-22.5.5 0 1.4 1.2 2.1 2.6zm18 19.7c8.2 28.1 11.4 48.5 13.7 86 1.4 23.5 1.4 31.9.5 53.5-.6 14.1-1.4 28.8-1.8 32.6l-.6 6.8-3.6-.6c-2-.3-4.4-1.6-5.5-2.8-2.2-2.7-2-5.5 1.8-27.1 4.7-27.1 5.1-59.3 1.1-96.5-1.8-16.1-5.6-40-8.5-53.5-2.3-10.3-2.4-11.5-1.1-10.2.5.6 2.3 5.8 4 11.8zm-124.1 30.3c3.2 2.1 3.2 10.2-.2 14-4.1 4.8-13.3 2.9-15.6-3.2-1.3-3.3.8-8.3 4.6-11.3 3-2.4 6.9-2.2 11.2.5zm-56 14.1c-.1 14 3.2 22.8 12.2 32.6 7.1 7.7 13.1 10 26.5 10.1 13.8.1 18.4-1.6 28-10.6l7.5-7 1 2.7c.5 1.4 1 6.1 1 10.2 0 7.2-.3 8.2-4.6 16.2-5.7 10.6-9.2 14.4-17 18.2-5.8 2.9-6.7 3-23.5 3.6-21.3.7-24 .1-26.7-6-1.8-4-7.1-9.2-17.9-17.6l-4.3-3.3v-12.4c0-15.5 1.6-25.6 4.8-30.9 2-3.2 12-14.5 12.9-14.5.1 0 .2 3.9.1 8.7zm-48.8 50.2c3 .5 7.7 1.3 10.5 1.6 10.5 1.4 16.5 4.8 26.9 15.4 12.4 12.7 12.9 16.6 1.4 13.5-2.9-.8-9.3-1.7-14.3-2.1-8-.5-9.9-.3-16.9 2.1-13.4 4.5-22.5 9.3-29.5 15.3-14.8 12.9-25.1 23.7-28.5 29.7-4.7 8.3-9.8 14.1-11.8 13.3-2.4-.9-8.3-12.1-11.7-22.3l-3.1-9.1 2.8-11.4c3.1-12.5 5.6-17.2 13.6-25.7 5.3-5.6 14.4-12.4 19.3-14.3 4.3-1.7 32.6-7.8 34.3-7.4.8.2 4 .8 7 1.4zm34.1 38.7c3 .9 8.5 3.1 12.3 5 3.9 1.9 7.5 3.4 8 3.4 1.5.1 10.4 11.7 14.4 18.7 4 7.2 8.2 20.1 8.2 25.4 0 7.8-1.9 12.7-6.5 16.4-6.2 5.2-11.8 7.2-24.3 8.9-14.8 2.1-22.9 2-39-.4l-13.4-1.9-6.1 3.1c-4.2 2-9.6 6.4-16.7 13.2-17.8 17.2-26.5 22.8-50.6 32.2-9.8 3.8-12.8 4.5-23.5 5.5-27.2 2.4-58.8-2.6-76.4-12.1-5.1-2.8-10-5-10.8-5-2.2 0-5.7 4.8-5.7 7.7 0 4 3.5 9.5 10.2 16 9 8.7 16.6 13.7 27.6 17.9l9.5 3.7 12.6-1.1c16.4-1.5 28.6-4.9 44.1-12.2 6.9-3.3 13.2-6 14.1-6 .8 0 4.6-2.1 8.4-4.7 3.9-2.6 16.2-10.5 27.4-17.5 23.6-14.9 23.7-14.9 38.6-9.7 7.5 2.6 11 3.3 20.6 3.7 12.7.5 25.2-1.4 32-4.9 2.1-1 4.5-1.9 5.3-1.9.8 0 5.4 3.1 10.3 7 13.4 10.6 26.7 15.4 47.3 16.9 6.4.5 12.8 1.5 14.3 2.2l2.8 1.3-6.3 6.4c-7 7.1-19.7 17.3-27.4 22-2.7 1.7-12.9 6.8-22.5 11.3-19.4 9-32.5 13-49.9 14.9-5.8.6-13.9 2-18 3-16.1 3.9-45.4 5.9-62.5 4.1-6-.6-18.6-2.8-28-5-9.3-2.2-22.8-5.4-29.9-7.1-7.7-1.8-16.6-4.7-22.5-7.4-5.3-2.4-12-5.1-15-6.1-14.1-4.6-55.2-37.4-60.2-48-2.6-5.5-2.5-11.5.2-14.4 2.7-2.9 7.9-5.1 11.9-5.1 1.7 0 14 2.8 27.3 6.2 23.8 6.1 24.4 6.2 37.7 6.2 15.4 0 24.1-1.9 35.8-7.8 8.6-4.4 23.8-17.3 29.5-25.1 2.4-3.3 7.1-8.5 10.5-11.6 4.4-4.1 6.9-7.5 9.1-12.3 4.1-9.1 12.3-20.6 20.6-29.1 11-11.3 22.5-19 36.8-24.6 8.5-3.4 19.1-3.9 27.8-1.3zm185.9 29c0 2.4-.5 4.6-1.1 4.9-1.4.9-4.7-2.2-7-6.7-3.2-6.2-2.7-6.9 3.1-4.5 4.9 2 5 2.2 5 6.3zm-136.6 55.3c4.4 3.7 10 7.8 12.3 9 6.6 3.3 18.8 7.1 29.5 9.1 15.7 3 20.3 7.3 13.5 12.4-2.6 1.9-4.1 2.1-20 2.1-23.1 0-30.6-2-45.1-11.8-9.7-6.6-15.6-12.8-15.6-16.5 0-2.2.5-3.2 1.5-3.2 2.2 0 10.8-4.5 12.4-6.4.8-.9 1.8-1.6 2.3-1.6.6 0 4.7 3.1 9.2 6.9zm-80.9 3.2c3.3.6 14.6 1.4 25 1.7l19 .7.3 2.7c.2 1.9-.3 3.1-2 4.2-5.2 3.3-23.6 4.7-35.4 2.5-6.8-1.2-18.2-5.5-20.4-7.6-1.3-1.3-1.2-1.7.9-3.4 2.7-2.2 4.3-2.3 12.6-.8zM1102 767.5c5.2 1.4 19 3.5 30.5 4.8 18.8 2.1 20.7 2.5 18 3.6-9.9 4-26.5 5.5-36.8 3.1-12.3-2.7-21.9-7.9-24.9-13.4-.9-1.7-.8-1.8 1.3-1.2 1.3.4 6.7 1.8 11.9 3.1zm515 202.3c8.5 2.9 21.5 6.3 28.9 7.7 25.7 5 49.3 13.5 62.2 22.3 11.3 7.8 26.7 22.9 28.4 27.7.7 2.2 1 4.3.7 4.7-.4.3-6.3 2.1-13.2 3.8-14.8 3.8-17 5-17 9 0 2.3.5 3.1 2.5 3.6 1.8.4 2.8 1.5 3.2 3.5.4 2 1.3 3.1 3 3.5 3.3.9 12-.2 17.3-2.1 2.3-.8 7.5-1.5 11.4-1.5h7.2l2.2 6.7c1.9 6.2 2 7.7 1.1 17.8-.5 6-3.8 28.8-7.4 50.5-3.5 21.7-7.2 44.6-8.1 50.7-1.6 10.6-1.8 11.3-4 11.3-1.4 0-2.5-.8-2.9-2.1-1.3-4-7.6-13.7-14-21.4-3.6-4.3-6.5-8.2-6.5-8.6 0-2.5-29.5-24.6-39.8-29.8-10.7-5.5-43.3-12.4-65.7-14-17-1.2-31.4-3.7-34.5-6-4.6-3.3-3.5-15.4 2.1-22.5 1.6-2 3.2-2.6 8.7-3.1 3.7-.4 12.8-2.3 20.2-4.1 7.4-1.9 16.3-3.7 19.8-4 5.8-.6 6.6-1 9.8-4.8l3.5-4.1 2 2.4c2 2.4 2.1 2.4 9.6 1.3 10.1-1.6 12.7-2.9 13.1-6.7.2-1.7 1.5-4.2 2.9-5.7 5.3-5.6.5-8.9-10.2-7.1-3.6.6-10.3 2.4-15 3.9l-8.5 2.8-3.6-3.5c-1.9-1.8-4.6-5.3-5.9-7.5-3-5.1-13.7-15.1-18.2-17-1.8-.8-6.6-1.7-10.7-2.1-7.3-.6-11.5 0-41.6 5.3-4.7.9-15.5 2.1-24 2.9-13.9 1.2-29.9 3.9-39.1 6.5-1.9.6-3.7 1-4 1-1 0-15.4-22-18.6-28.5-6.8-13.5-12.4-27.4-12.1-29.6.4-2.9 1.9-3.3 23.8-6.4 9.6-1.4 25.8-4 36-5.9 27.8-5.2 41.2-6.4 67-6.1l22.5.2 15.5 5.1zm-561.2 70.7c.6 4.4 1.5 16.9 1.8 27.8.7 20.5-.3 32-3.2 36.2-.9 1.3-4.8 2.8-12.3 4.7-10.3 2.5-23.4 7.2-37.6 13.2-9.1 3.9-14.6 3.5-22.8-1.4-6.4-3.9-6.8-4-16-4-10.3 0-24.8 2.2-30.5 4.6-5.1 2.1-8.1 6-16.3 21.1l-7.2 13.2-8.6 3.9c-4.7 2.1-12.9 5.4-18.1 7.3-5.2 1.8-11.7 4.8-14.4 6.7-3.1 2.1-7.6 3.9-12.3 4.9-8.1 1.8-12.3 4.3-12.3 7.4 0 2.4 2.8 3.1 11.6 2.7 3.8-.2 7 .1 7.2.6.2.5-3 2.1-7 3.6-7.5 2.7-9.2 4.6-6.8 7.5 1.9 2.3 9.4 1.8 15.3-.9 3.8-1.8 8.3-2.7 16.9-3.5 6.4-.6 13.5-1.8 15.8-2.6 2.4-.8 5.5-1.5 7-1.5 2.4 0 3 .7 4.9 5.7 1.2 3.2 3.5 10.4 5.1 16 1.6 5.5 3.5 11.4 4.3 13 5.1 9.9 14.7 40.7 14.7 47 0 6.3-14.1 29-27.9 44.8-3.3 3.8-7.1 9-8.5 11.5-2.2 4.1-27.3 38.1-38.4 52.1-5.6 7-7.8 7.5-8.6 2.1-1.6-10.1-2.7-23.7-2.7-33.2.1-5.8-.8-19.3-1.9-30-1-10.7-2.6-27.4-3.5-37-1.1-12-3.3-25.9-7.1-44-3-14.6-5.4-27.1-5.4-27.8 0-.6 1.1-1.2 2.4-1.2 4.2 0 7.6-7 4-8.4-.9-.3-3.5-.6-5.8-.6-7.8 0-9.1-4.4-1.6-5.4 5.5-.7 8-2.6 8-6.1 0-3.2-2.5-3.8-11.9-3l-7.7.7-2.7-3.9c-4.6-6.7-11.9-12.8-23.4-19.7l-11.2-6.6-21.8-4.9c-30.9-7-72.6-15.8-80.3-17-3.6-.6-12-1.5-18.6-2.1l-12.2-1.2-10.8 4.3c-9.4 3.7-11.9 5.2-17.9 10.8-3.8 3.6-7.9 8-9 10-2.2 3.9-5.2 5.6-4.2 2.5 6-19.4 9.8-26.4 19.7-35.8 4.7-4.5 9-7.1 21.5-13.1 12.9-6.2 17.9-8.1 28.3-10.5 16.8-3.8 52.6-11 79.2-16 11.8-2.2 28-5.6 36-7.5 19.2-4.6 45.6-9 66.5-11 9.4-.9 19.7-2.5 23-3.5 3.3-1 9.6-2.3 14-3 30.6-4.4 48.8-7.9 71.7-13.6 27.5-6.8 45-9.9 62.7-11 5.8-.4 11.7-1.3 13.1-2 1.4-.8 4.7-1.3 7.5-1.1l5 .2 1.3 8zm544.4-2c4.1 2.7 9.4 9.2 8.4 10.2-.4.4-3.7-1-7.5-3-7.9-4.3-11.9-4.6-17.5-1.4-4.7 2.6-9.1 9.6-13.6 21.2-1.7 4.4-5.4 14-8.2 21.4l-5.2 13.3-3.5-.5c-4.5-.6-41.9-18.6-46.9-22.5-2-1.6-8.1-5.1-13.4-7.8-9.7-4.8-9.8-4.9-9.8-8.4 0-3.7 2.4-6.8 8-10.3 4.2-2.7 18.8-5.7 30.5-6.3 6.1-.3 16.9-1.7 24-3 31.7-5.8 34.9-6.3 43-5.7 6.1.4 8.9 1 11.7 2.8zm-3.7 18.2c3.1 2.3 4.9 5.7 4.1 7.8-1.3 3.5-15.4 6.3-17.1 3.5-1.1-1.8.6-8.8 2.7-11.6 1.7-2.1 2.7-2.5 5-2 1.6.3 4 1.4 5.3 2.3zM1443 1063c12 1.7 32.9 10.6 90 38.4 14 6.9 26 13.2 26.5 14 .8 1.3-.5 3-6.7 8.6-9.9 9.1-16 17.3-21.5 28.7-2.4 5.1-4.8 9.3-5.2 9.3-1.8 0-10-3.9-44.6-21.4l-36-18.1H1424c-23.4.1-34.8 1.4-59.3 6.7-13.2 2.8-14.4 3.3-24.5 9.5-5.9 3.6-16.2 9.5-23 13-11.2 5.7-13 6.3-18.4 6.3h-6.1l.5-5.8c.4-3.3 1.7-7.9 3.1-10.8 4.3-8.4 31.1-36.5 53.2-55.8 13.6-11.9 18.4-13.8 46.5-19.1 24.5-4.5 34.7-5.3 47-3.5zm-372 62.2c14.1 7.5 21 12.7 29.2 22.1 23.8 27.3 37.7 50.6 49.1 82.2 8.9 24.5 21.5 76.8 25.7 106 1.7 11.5 3.7 24.8 4.5 29.5 3.8 22.6 5.6 48.8 5.6 81.1 0 23.9-.3 29-3.1 50.5-6.9 53.6-10.1 74-15.1 94.4-11.3 46.9-23.2 84-26.7 84-1.7 0-5.4-8.6-7.6-17.7-4-16.5-6.4-24.8-15.1-52.3-10.2-32.1-30.2-103.7-30.8-110.3-.5-5.4-.9-5.3 8.8-3.2 3.9.8 10.4 1.5 14.5 1.5 27 0 50.8-19.9 45-37.6-1.8-5.3-8.9-12.5-17.8-18-9.9-6-10.3-6.5-30.2-28.4-15.5-17.2-17.3-18.8-24.1-22.1-4.1-2-9.2-4.2-11.4-4.9-2.2-.7-4.5-1.7-5.2-2.2-.6-.5-1.4-4.8-1.8-9.6-2.7-37-6.1-69.3-8.1-77.7-.7-3.3-2.3-13.7-3.4-23-5.6-46-9.6-59.8-23.7-80.8-7.1-10.6-11.9-14.4-19.3-15.4l-4-.6-3-9.6c-3.6-11.9-5.3-20.5-4.8-25.1l.3-3.5 11.5-4c6.3-2.3 13.8-5.2 16.5-6.5 7.5-3.5 19.9-6 27-5.3 4.8.4 8.3 1.7 17.5 6.5zm542.5-1.8c29.2 4.2 50.7 9.9 61.3 16.3 9 5.5 21.1 14.6 27.3 20.6 7.7 7.4 17.6 20.7 22.9 30.4 9 16.7 24.8 30.9 64 57.6 13.6 9.2 17.6 12.6 32 27.4 23.6 24 39.3 45.1 53.3 71.8 6.3 12.1 11.5 23.4 13 28.5 10.2 33.6 14.5 64.5 13.4 95.4-.9 23.6-3.4 53.7-4.6 54.9-1.5 1.5-3.8-.8-4.7-4.6-.3-1.7-2.8-6.9-5.5-11.6-2.7-4.7-4.9-9.1-4.9-9.8 0-2.4-23.8-31-28.8-34.5-2.7-2-7.8-6.2-11.3-9.5-21.5-19.9-58.1-42.1-93.6-56.7-5.9-2.5-16.4-7.3-23.1-10.6-6.8-3.4-19-9.1-27-12.6-32.4-14.4-50.6-26-69.5-44.3-24.5-23.8-39.3-42.6-56-70.8-12.3-20.7-25.6-48.9-27.6-58.3-.6-2.7-2.4-9.1-4.1-14.1-6.8-20.6-2.5-37.5 13.3-52.6 7.2-6.9 13.4-10.8 21.5-13.4 7-2.3 20.9-2.1 38.7.5zm-654.3 4.2 4.5.6 1.8 7.7c.9 4.2 4.1 16.4 7 27.1 2.9 10.7 5.8 22.9 6.5 27 .6 4.1 3.1 14.5 5.5 23s5.8 21.1 7.5 27.9c1.7 6.8 3.7 13.6 4.4 15 3.8 7.3 33.6 124.7 33.6 132.2 0 4.3-.3 4.8-3.7 7-8.3 5.4-12.8 6.2-14.3 2.6-1.4-3.1-15.1-50.5-27.4-94.9-5.8-20.8-11.2-39.2-12.1-40.9-.9-1.7-3.4-9-5.5-16.2-2.2-7.3-5.3-17.3-7-22.2-1.7-5-5.7-19.6-9-32.5-3.3-12.9-8-30.6-10.5-39.4-2.5-8.7-4.5-16.6-4.5-17.5 0-3.1 1.8-4.2 9.1-5.5 9.4-1.7 8.8-1.7 14.1-1zm23 5.9c2 1.4 3.9 3.3 4.2 4.2 6.3 20.8 14.9 54.3 20.1 78.8 2 9.3 6.1 25.1 9.1 35 6.7 21.9 14.4 51.2 14.4 54.7 0 1.4 1.8 10.8 4 20.9 2.1 10.1 4.4 22 4.9 26.4.6 4.4 1.7 10.3 2.5 13.1 1.9 6.8 3.1 16.4 2 16.4-2.4-.1-3.6-3.1-8.7-23.5-8.6-33.5-9-34.9-9.5-36.5-.3-.8-.6-3.3-.7-5.5-.1-2.2-1.4-7.4-2.8-11.5s-5-16.1-8.1-26.5c-3-10.5-8.3-27.6-11.7-38-3.4-10.5-9-31.4-12.5-46.5-3.6-15.1-7.8-32.6-9.4-38.9-1.7-6.3-3.3-14.5-3.7-18.3-.7-7.9 0-8.3 5.9-4.3zm475.9 5.2c4.4 2 7.6 3.9 7.2 4.4-1.2 1-10.8 2.9-15.3 2.9-3.5 0-4-.3-4-2.4 0-3.1 2-8.6 3.1-8.6.6 0 4.6 1.6 9 3.7zm-781.3 7.9c6.8.9 12.9 1.3 13.6 1.1.7-.3 7.1.8 14.2 2.5 7.1 1.6 23.8 5.3 37.1 8.3 13.3 3 25.9 6.3 28 7.3l3.8 2-3.5.6c-8.6 1.5-38.4 2.4-50 1.6-6.9-.5-26.7-1.2-44-1.5-17.3-.4-34-1-37-1.5s-8.7-1.2-12.7-1.5c-10.1-1-10.3-2.3-1.3-10.7 11.6-10.9 19.4-12.1 51.8-8.2zm260 24.4c3.4 12.4 7.3 27.2 8.7 33 1.4 5.8 5.5 19.6 9.1 30.8 19.9 62.8 48 163.1 47.2 168.8-.3 2-.5 2-8-1.4-7.1-3.1-7.8-3.8-9.6-8.1-4.5-10.5-22.7-70.7-33.2-109.7-2.1-7.7-4.9-16.3-6.2-19-1.4-2.7-4-9.4-5.8-14.9-1.8-5.5-5.1-14.3-7.2-19.5-2.2-5.2-7.2-20-11.1-32.7l-7.1-23.3 5.9-12.5c5.4-11.7 8.9-16.5 10.6-14.7.4.4 3.4 10.8 6.7 23.2zm554.2-15.7c2 .7 11 5.1 20.2 9.9l16.5 8.8.7 4c.3 2.2 1.7 7.5 3.1 11.7 2.5 8 3.2 13.3 1.6 13.3-4.5 0-20.1 3.7-27.4 6.6-12.2 4.8-16.6 6.1-26.7 7.9-8.5 1.6-28.6 8.8-54.2 19.5-10.8 4.5-14.9 6.8-19.8 11.1-7.2 6.2-20.1 20.9-28.4 32.2-9.4 12.7-19.6 17.9-35.6 18.1-8.6 0-9.9-.2-13.6-2.6-6.1-3.9-9.4-8.3-9.4-12.5 0-2.7 1.5-6 6-12.9 8.9-13.9 17.6-31.9 29.5-60.9 5-12.3 7.9-17 14.8-24.2 8.8-9.2 8.9-9.3 86.7-29.7 6.8-1.8 31-2 36-.3zM480 1166c28 1.2 51 2.6 75 4.5 17.3 1.4 51.7 3.1 105.5 5.5 61.4 2.6 125.7 3.9 132.5 2.5 3.3-.6 3.9-.3 8.5 4.2 6 5.8 12.5 14.7 12.5 17.2 0 1.7-3.2 1.8-57.7 2.4-75 .9-287 .7-308.2-.2l-16.4-.7-4.4-5c-2.4-2.7-4.7-6-5-7.4-.3-1.4-1.4-3.6-2.4-5s-2.5-5.4-3.4-9c-2.5-11-4.5-10 19.8-10 11.6 0 31.3.5 43.7 1zm422 9.2c3.7 6 2.9 7.4-4.9 9.2-9.5 2.2-20 2.2-20.8 0-1.1-2.9 1.2-4.8 8.8-7.3 4.1-1.3 8.8-3 10.4-3.7 4.2-1.8 4.3-1.8 6.5 1.8zm-484 24.4 5 6.7-.1 31.1c0 39.4-.5 44.5-4.4 48.6-2.1 2.2-3.8 3-6.4 3h-3.6l.2-36.7c.1-20.3.4-39.5.7-42.8.5-6.3 2.5-16.5 3.1-16.5.3 0 2.7 3 5.5 6.6zm604.4-3.4c6.1 9.8 20 64.9 22.6 89.8.6 5.8 1.8 14.3 2.6 19 .8 4.7 1.9 14.3 2.5 21.5.6 7.1 1.3 15.1 1.6 17.7.5 5.1-1.1 6.8-2 2-.3-1.5-1.1-4.5-1.7-6.7-.6-2.2-1.5-6.5-2-9.6-.4-3.1-1.4-7.8-2.3-10.5-.8-2.7-2.3-9.4-3.3-14.9s-2.4-10.9-3.1-12c-.7-1.1-1.3-2.9-1.3-4.1 0-2.8-7.9-29.8-13.5-46.4-4.2-12.3-7.6-27.4-9.1-40.6-.6-5-.6-5.2 2.2-6.2 4.3-1.6 5.2-1.4 6.8 1zM534 1211.3c27.2.1 101 0 164-.2 128.2-.4 121.4-.8 123.8 6.3 2.9 9 5.3 19.8 6.9 30.9 1.3 9.6 1.4 12 .4 12.6-1.5 1-12 1.8-39.6 3.1-32.3 1.5-73.6 3.9-94 5.5-20.6 1.6-60.4 4-91.5 5.5-10.7.6-32.3 1.9-48 3-15.7 1-41.3 2.6-57 3.5-66.2 3.6-67 3.6-68.2.3-.6-1.3.5-37.1 1.8-58.4.5-10.1.8-11.3 2.7-12.3 1.5-.7 9.9-.9 25.7-.5 12.9.3 45.8.6 73 .7zm1004.2 2.1c.4.6 2.6 5.6 4.9 11.1 2.3 5.5 7.5 16.2 11.6 23.7 4.5 8.3 7.3 14.6 7.1 16-.4 2.9-11.3 9.3-38.8 23-24.5 12.1-34.9 18.9-45.1 29.5-8.1 8.3-15.9 20.7-17.9 28.3-.6 2.5-2.2 8.1-3.6 12.6l-2.5 8.1-5.2 2.1c-2.9 1.2-9.3 2.7-14.3 3.3l-9.1 1.2-11.1-3.8c-14.3-4.9-16.9-6.5-19.4-12.1-1.6-3.8-1.8-5.2-1-8.3 9.9-34.7 24.5-82.7 26.2-86.1 3.6-7 12.6-15.3 21.7-19.9 4.5-2.2 9.8-5.2 11.8-6.6 4.5-3 18.7-7.7 30.5-10.1 4.7-.9 13-3.4 18.6-5.5 5.5-2.2 12.5-4.4 15.5-4.9 2.9-.6 7.4-1.7 9.9-2.4 4.6-1.5 9-1.1 10.2.8zm-755.3 62.2c.8.8-4.5 5.6-13.4 12.3-5 3.8-11.4 9.4-14.4 12.6-5.7 6.3-20.9 26.4-25.7 33.9-1.6 2.5-3.2 4.6-3.6 4.6-1.3 0-8.7-9.8-13.6-18-2.8-4.7-7-10.4-9.4-12.6-3.6-3.5-26.8-18.1-37.2-23.6-2.8-1.4-2.8-1.6-1-2.6 3.6-1.9 4.9-2 68.4-5.8 6.3-.3 12.4-1 13.5-1.5 1.9-.8 35.5-.2 36.4.7zm790.7 4.8c2 2.2 5.2 7 7.2 10.6 2 3.6 4 6.6 4.4 6.8 1 .4 27.8 34.9 28.4 36.6.7 1.8-1.5 3.2-6 4.1-2.2.3-6 1.7-8.5 3-2.6 1.2-7.3 3-10.5 4-6.4 1.8-19.2 7.9-31.8 15.2-12.5 7.2-22.1 19.7-27.3 35.7-1.9 6-3.8 9.5-8.1 14.7l-5.6 6.9h-5.5c-6.1 0-22.6-5.8-25.3-8.9-.8-.9-3.4-2.9-5.7-4.4-6.6-4.2-14.1-12.3-15.2-16.5-2.3-8.1-.6-22.3 4.5-38.7 3.8-11.9 14.2-26.4 24.5-34 3.2-2.3 15.6-9.5 27.6-15.8 12-6.4 27.1-14.5 33.6-18 7.4-4 12.6-6.3 13.8-6 1.1.3 3.6 2.4 5.5 4.7zm-736.7 28.3c3.6 37.6 4.7 52 5.6 75.8.4 9.3.9 17.7 1.1 18.6.3 1-4.4 8.3-12 18.5-6.9 9.3-22.3 32.4-34.2 51.4-11.8 19-23.3 36.7-25.5 39.5-2.2 2.7-4.9 7.6-6 10.7-2.3 6.1-8.1 13.8-10.5 13.8-2.5 0-3.3-4.3-4.9-25.2-.9-11.2-2.7-30.2-4-42.3-1.3-12.1-3.1-33.3-4-47-2.1-33.4-3.2-46.4-4.9-56-.8-4.4-1.5-10.8-1.5-14.3-.1-5.5.5-7.4 4.3-15.1 4.9-9.7 17.3-25.8 26.5-34.3 9.4-8.8 24.1-17.8 35-21.6 11.8-4.1 15.6-4.9 24.7-5.1l7-.1 3.3 32.7zm-216.3-21.5c3 5.9 11.7 70.9 17.4 131.3 1.7 17.6 4.6 46.1 6.5 63.3 2.5 22 3.5 35.8 3.5 46.5v15.3l-21.9 5.3c-12 2.9-25.6 6.8-30.2 8.7-4.6 1.8-9.2 3.4-10.2 3.4-2.6 0-3.6-3.7-2.6-10.5 10.1-72.1 17.9-157.2 21.9-237.6.6-11.4 1.5-22 2.1-23.7 1-2.9 2.8-3.7 11.1-5.1.4 0 1.5 1.4 2.4 3.1zm20.4 1.3c3.1.8 15.8 6.4 28.1 12.4l22.3 11 10.3 12.8c9 11.3 10.5 13.7 12.7 20.8 3.2 10.1 6.3 33.6 8.1 62.5.7 12.4 1.6 23.2 1.9 24 1.1 3.1 3.6 31.3 3.6 41.7.1 5.9.7 17.1 1.5 24.8 2.4 23.5 4.4 54.9 4.9 78l.6 22-3 9.4c-7 22.1-10 43.8-10 72v18.9l-3.2 7.3c-2.6 5.9-3.2 8.8-3.3 14.4 0 3.8-.7 9.4-1.4 12.4-2.1 8.2-1 26.4 2.3 37.4 3.1 10.3 8.7 21.9 11.6 24 1.1.7 2.4 2.7 3 4.3.5 1.6 2.7 18.4 4.9 37.4 7.6 64.7 7.8 69 3.8 69-1.1 0-9-4.5-17.4-10.1-21.9-14.4-40.2-21.5-53.8-20.7l-6 .3-.6-18c-1.1-28.6-1-59.5.1-79.5 1.3-24.5 1.4-133.7 0-166-1.3-31.6-3.6-71-5.5-93.5-.8-9.3-1.5-20.2-1.5-24.3 0-8.1-5.4-56.2-15.4-137.2-3.6-28.3-6.7-55.4-7-60.3-.7-10-1.1-9.7 8.4-7.2zm-46.5 13.7c-.3 6.8-.8 25.8-1 42.3-.3 19.4-1.2 37.7-2.5 52-4.5 47.5-9.1 89.3-10.5 95.2-.8 3.5-1.8 12.5-2.1 20-.5 10.4-1.2 15.7-3 21.3-1.3 4.1-2.4 9.3-2.5 11.5-.1 5.6-2.2 13.8-3.5 14.2-.8.3-.7-1.9.2-7.4.8-4.3 1.3-9.4 1.2-11.3-.1-1.9 1.3-10.6 3.1-19.2 1.7-8.6 3.2-17.4 3.1-19.5 0-7.6 1-22 2.4-30.8.7-5 1.4-10.4 1.4-12.1.1-1.7.8-9.8 1.7-18 .9-8.2 1.8-23.4 2.1-33.9.4-19.4 1.3-30.6 4-52.5 1-7.2 1.4-15.8 1.1-20.2-.3-4.3-.1-8.1.4-8.4.5-.3.9-4 .9-8.2-.1-8.4.8-24 1.5-26 .2-.6.9-1.2 1.6-1.2.7 0 .9 3.5.4 12.2zm348.9-5.4c1.4 2.7 3.4 8.5 4.5 12.8 1.1 4.4 4 13.8 6.5 20.9 2.4 7.2 5.6 17.9 7.1 23.8 1.4 5.9 4.6 16.5 7.1 23.6 3.7 10.8 5.5 19.1 4.1 19.1-.2 0-5.2 1.3-11.3 2.8l-10.9 2.8-25.2 17.7c-26.2 18.4-37.2 24.7-46.1 26.6-6 1.3-9.9 3.1-23 10.9-10.7 6.3-22.5 18.1-34.9 34.7-10.6 14.2-14.5 21.3-19.7 35.6-2.5 6.9-5.5 14.7-6.6 17.3-2.4 5.6-2.5 7.6-.6 10.2 1.5 1.9 1.5 1.9 3-.1 2.3-3.1 12.2-22.3 14.6-28.5 1.2-3 4.8-9.6 7.9-14.5 3.2-5 6.5-10.4 7.4-12 3-6 20.5-25.1 28.3-31 6.3-4.7 11.7-7.5 26.5-13.6 10.2-4.2 21.3-9.5 24.5-11.7 3.2-2.2 7.3-4.6 8.9-5.5 1.7-.8 10.2-7 19-13.6 17.1-13 22.6-15.6 34.7-16.8 7.1-.7 18 1.3 21.4 3.9 4.2 3.4 4.7 6.1 2.4 14.5-3 10.9-7.2 19.5-14.4 29.2-16.1 21.7-26.5 40.4-34.7 62.1-11.2 30.1-23.5 54.5-39.7 78.8-12.7 19.2-29.9 35.9-46.3 44.9-11.7 6.4-16.3 7.3-38.2 7.3-31.5 0-50.5 6.5-76.8 26.3-8.9 6.7-11.9 7.3-11.9 2.4.3-19.2 2.1-36.2 5.4-49.3 11.4-45.4 29.1-87.6 50.6-120.9 5.7-8.8 17.4-27.3 26-41 16.1-25.7 81-116.2 106.8-148.9 7-8.9 14.3-18.2 16.1-20.9 1.9-2.6 3.8-4.7 4.3-4.7.4 0 1.9 2.2 3.2 4.8zm678.6 52.5c0 2.4-7.7 17.1-13.7 26.2-7.7 11.6-18.9 25-28.9 34.5-24.4 23.2-51 44-56 44-3.8 0-4.5-2.2-4.5-14.6-.1-10.3.2-11.9 1.7-12.7 5.7-3.2 16.6-19.8 19.8-30 2.8-9.1 7.2-16.3 13.1-21.5 10.7-9.3 51.9-27 63.3-27.1 3.6-.1 5.2.3 5.2 1.2zm23.9 9.9c5.8 4 14.2 9.3 18.6 11.8l8 4.6.3 5c.5 8.3-2 12.9-15.2 27.3-19.8 22-46.1 44.6-70.1 60.7-16.7 11.2-17.3 11.5-35 17.5l-18 6.2-18.5.1c-15.9.1-18.9-.1-21.7-1.7-3.7-2-4.4-5.5-1.5-7.9.9-.8 9.4-5.6 18.7-10.7 17.3-9.4 29.4-17 37.5-23.7 2.5-2 15.3-13.8 28.4-26.3 28.9-27.3 37.6-38.1 50.9-63.8 2.3-4.5 3.8-6.3 5.2-6.3 1.1 0 6.7 3.2 12.4 7.2zm-440.8 29.2c18.6 14.9 28.1 18.8 45.4 18.9 12 .1 18-1.5 30.4-8.1l10.5-5.5 7 3.6c3.9 2 11.4 6.3 16.7 9.7 5.3 3.3 14.3 7.8 19.9 10.1 9.7 3.9 10.8 4.1 18.4 3.7 13.1-.7 25-7.4 40.1-22.7 3.8-3.9 7.5-7.1 8.1-7.1 1.2 0 1.6 6.4 3.4 48.5.5 12.1 1.2 24 1.5 26.5.3 2.5 1.4 14.2 2.6 26 3.2 33.9 10.5 65 23.1 98.5 3.9 10.4 10.1 28 13.8 39 7.5 22.2 22.8 56.5 33.6 75.3 16.2 28.3 26.3 44.5 34.9 56.2 5.1 6.9 13.2 18.3 18.1 25.5 6.9 10.2 12.7 17 27.1 31.8 10.3 10.7 18.3 19.6 18.3 20.7 0 1-1.6 2.8-3.7 4.2-5.2 3.1-10.8 2.9-21.3-.9-11.9-4.3-21.6-5.7-36.2-5.1-22 1-38.7 8.2-60.2 26l-13.1 10.9-.3-3.2c-.2-1.7.4-5.3 1.2-8 2.4-7.1 2.1-10.7-.8-12.1-1.4-.6-3.1-.8-3.9-.5-1.9.7-13.3 16.6-22 30.7-10 16-33.7 41.2-51.2 54.5-8.3 6.4-26.2 14.9-37.5 18.1-12.6 3.4-38.3 4.5-50 2-8.8-1.9-20.5-7.2-27.8-12.7-6.3-4.8-10.5-5.6-11-2.1-.3 1.7 1.2 3.8 6.1 8.6 7.1 6.8 15.1 11.5 24 14.1 6.6 1.9 6.8 2.5 3.2 10.4-6.6 14.2-17.7 26-53.5 57.1-13 11.3-21.2 19.3-27.2 26.7-3.4 4.2-5.9 6.3-7.3 6.3-1.4 0-3.8-2.1-7-6.2-6.4-8-13.5-13.3-21-15.7-12.9-4.1-21.9-3.7-29.3 1.3-6.2 4.1-8 7-14.7 23.8-3.1 7.9-5.9 14.5-6.1 14.7-.2.2-3.1-1.9-6.3-4.7-4.4-3.8-6.8-5.2-9-5.2-2.9 0-3.1.3-5.4 7.7-1.4 4.8-2.9 7.9-3.9 8.1-.9.2-4.7-3.7-9.5-9.7-9.3-11.8-10.3-14.7-11-32.1-.5-12.7-1.2-14-7-14-2.6 0-4.7 1.3-10.5 6.6-8.7 7.9-12.7 10.2-13.9 8.3-1.9-3.2-2-9.8-.3-20 1.4-8.9 1.5-11 .5-12.3-2.5-3-5.2-1.8-17.6 7.4-6.5 4.9-12.8 8-16.1 8h-2.7l.7-11.3c.4-6.1 1.2-14.7 1.8-18.9 1.1-7.2 1.3-7.8 3.8-8.3 1.5-.3 3.9-1.8 5.4-3.4 2.4-2.5 2.6-3.5 2.9-12.2.3-11.5.2-11.6-13.2-30.4-5.6-7.7-10.1-15-10.1-16.2 0-1.3 1.1-3 2.6-4 1.4-1 6.2-5.1 10.6-9.1 4.3-3.9 8.3-7.2 8.8-7.2s9.7 5.4 20.6 12.1c21.4 13.2 28.7 17.1 40.9 21.9 4.4 1.7 12.7 6 18.5 9.5 20.3 12.1 30.7 16.5 32.5 13.5.3-.6 2.1-1 3.8-1 4.2 0 9.4-3.2 11.5-7.1.9-1.7 3.1-5.4 4.9-8.2l3.1-5.1 1.2 4.4c1.9 7.7 2.9 10.4 5.1 13.9 1.7 2.8 2.4 3.2 4.7 2.8 23.2-4.5 35.2-10.5 35.2-17.5 0-2.9-5.2-17.7-13-37.2l-4.2-10.5.5-17.5c.5-17.6 1.8-27.9 5.9-46.7l2.2-10.1 7.1-.7c28.1-2.7 54.2-14.2 60.6-26.8 7.2-13.9 7.7-37.1 1.1-44-5.6-5.9-7.5-6.4-24.2-7-17.4-.7-29.7-2.9-45.5-8.2-15.6-5.2-25.2-9.9-26.8-13.2-2.3-4.4-6.4-17.2-7.8-24l-1.3-6.2 7.2-22.3c18.9-58.7 31.4-112.8 40.3-175.3 1.7-12.4 2.1-19.4 2-40.5-.1-14-.6-32.5-1.1-41-1.9-29.2-2.3-39-1.7-39 .4 0 6.6 4.7 13.8 10.4zm248.6-2.5c.6 3.3 2.2 8.1 3.5 10.8 5.2 10.7 20.2 21.8 39 28.9l12.5 4.7 1.3 14.8c.7 8.1 1 15.4.7 16.3-.3.8-3.4 2.9-6.9 4.7-8 4-19.9 11.6-21.5 13.7-.7.9-1.3 3.7-1.3 6.2 0 11 8.4 15.8 28.8 16.7 12.2.6 12.2.6 12.8 3.2 2 9 9.4 35.1 14.1 49.5 13.5 41.6 36.6 91.9 55.8 121.6 3.4 5.2 8.8 14 12 19.5 3.3 5.5 8.8 14 12.4 19 3.5 4.9 8.8 12.5 11.7 17 7.6 11.7 47.6 50.4 63.3 61.2 2.5 1.7 5.5 4.1 6.6 5.1 1.1 1.1 3.4 2.7 5.2 3.6 7.6 3.8 12.3 14 10.4 22.6-1.9 8.9-10.5 14.4-43.3 27.9-13.9 5.7-22.2 8.5-28.3 9.6-14.4 2.5-17 2.1-23-3.6-1.7-1.6-5.8-4.5-9.3-6.6-4.1-2.5-15.2-12.5-32.1-29-20.9-20.4-27.8-27.8-36.2-39-27.7-37-52.9-78.3-72.2-118.3-6.3-13.1-11.2-26.1-23.8-62.9-8.8-25.5-15.9-47.3-15.9-48.4 0-1-1.6-8.3-3.5-16.1-4.1-16.6-7.9-38-10-56.1-3.2-27.8-4.8-96.8-2.3-99.3.7-.7 4.3-1.2 8.8-1.3 4.1 0 9.8-.4 12.5-.9 2.8-.4 7.7-.8 11-.9l6-.1 1.2 5.9zm245.1 1.5c6.4 3 16.2 7.3 21.6 9.6 17.5 7.3 27.6 12.8 28.6 15.6 2.1 5.4 1.2 17.1-2 26.8-11.1 33.3-30.4 57.1-69 85.1-6.3 4.5-16.6 13-22.9 18.6-17 15.4-21.1 18.9-22.5 18.9-.7 0-3.5 2.2-6.2 4.8-7.3 7.3-14.1 9.6-27.9 9.7-12.6 0-16.5-.8-16.5-3.3 0-.9 10-14.8 22.1-30.7 32.4-42.4 45.5-62.9 55.8-87.6 3.8-9 8-19.1 9.5-22.4 2.1-4.8 15.6-48.1 15.6-50 0-1.2 2.8-.2 13.8 4.9zm-623.1 6.6c9.5 3.3 17.6 10.3 28 24.4 5.8 7.8 21.4 22.3 28.6 26.6 3.3 1.9 7.4 5.2 9.3 7.3 2.9 3.2 3.4 4.4 3.4 8.9 0 4.9-.3 5.4-5.1 10.1-7.7 7.4-16 10.9-27.3 11.5-8.3.4-9.9.2-18.1-2.7-10.1-3.5-13.1-5.3-16-9.9-1.4-2.1-3.6-3.6-6.8-4.7-2.6-.9-7.2-2.7-10.2-4-5.4-2.5-15.5-3.3-19.7-1.7-4.3 1.7-37.6 32.3-44.8 41.2-11.4 13.8-15.4 16.4-18.5 11.6-1.4-2.1-6.4-23.6-6.5-27.7 0-1.7 10.1-17.9 17.3-27.9 3-4 6.8-11.7 10.7-21.5l6.1-15.2 6.2-4.5c12-8.8 24-15.5 38.2-21.5 7.1-3 8.7-3.3 14-2.7 3.3.3 8.3 1.4 11.2 2.4zm699.9 29.7c11.7 5.1 30.3 15.8 34.6 20 4.3 4.1 5.2 8 3.8 17.9-3.5 26.9-10 41.9-33.5 77.4-17.1 25.7-29.8 38-42.3 40.8-4 .9-6 .4-9.5-2.6-1.6-1.4-1.5-1.9 1.9-8.1 2-3.6 5.4-9 7.6-12 6.3-8.3 14.5-26.5 17.3-38.3 6.6-27.9 9-58 6.6-83.8-1-10-.4-16 1.5-16 .8 0 6.2 2.1 12 4.7zm-114.8.8c.6 2.9-14.5 39.6-20 48.7-14.1 23.2-36.3 54.5-57.5 81.1-11.7 14.6-14.3 18.4-14.3 21 0 4.3.6 4.9 7 8.5 13.1 7.2 28.1 6.7 46.3-1.7 6.8-3.1 25.7-18.4 42.2-34.2 5.5-5.2 14.4-12.6 19.8-16.3 12.7-8.8 19.8-14.7 32.9-27.5l10.8-10.4 1.6 3.9c2.5 6 4.3 17.5 5 32.6l.7 13.8-3.8 6.2c-2.1 3.5-5.5 8.5-7.5 11.3-5.3 7.2-7 10.9-7 15.1 0 5.1 6.8 12 12.9 13 2.6.4 4.8 1.5 6 3 1 1.3 2.6 2.4 3.5 2.4 2.6 0 2.5 7.9-.5 32-4 32.3-7.8 51.6-13.6 69.4-8.1 24.8-23.3 62.6-25.1 62.6-.5 0-1.2-2.8-1.5-6.3-.7-7.5-4-20.1-5.8-22.3-3-3.7-5.2-1.3-13.4 14.6-5.4 10.3-8.7 15.6-9.9 15.8-1.3.3-6.1-3.8-15.8-13.5-12-11.9-15.4-16.1-25.2-30.8-6.2-9.4-15.3-23.5-20.1-31.5-4.8-8-10.3-16.4-12.2-18.6-9.7-11.9-48.9-102.3-55.4-127.7-1.1-4.5-3.9-14.4-6.1-22-2.2-7.6-3.6-14.2-3.2-14.6.5-.4 3.6-1.4 6.9-2 19.6-4.2 42.3-14.3 60.2-26.8 9.9-6.9 34.6-27.9 53.3-45.2 6.6-6.1 8.2-6.8 8.8-3.6zm91.8 57c-.3 7.7-1.2 16.7-1.9 20-2.3 10.1-4.9 18.5-5.7 18.5-.4 0-1.6-4.4-2.5-9.8-2.3-12.6-4-20-5.5-23.7-1.2-2.9-1-3.5 3.3-10.2 2.5-4 6.1-10 7.8-13.5l3.3-6.3.9 5.5c.5 3 .6 11.8.3 19.5zm87.8-14.4c4.1 3.8 6.9 7.4 7.7 9.7 2.1 6.3 1.5 37.6-.9 52.2-4.4 25.8-10 40.7-22.7 59.5-6.9 10.2-10.2 14.2-10.9 13.4-.3-.3 1-5.5 3-11.5 11.8-36 16-73.1 13-116.7l-.8-12.7h2.6c1.7 0 4.6 1.9 9 6.1zm-791.1 1.8c2.1.8 3 2.7 5.6 10.8 6.4 20.9 17.5 61.1 24.2 88.3 6.9 28.1 14.5 55.7 33.4 122.5 13 45.9 27.5 104.8 27.5 112 0 2.2-.8 3-4.7 4.7-6.1 2.7-11.6 3.4-13 1.6-1.5-1.8-8.3-25.3-13.8-48.3-2.6-10.5-8-30.2-12.1-43.9-8.8-29.2-20.2-70.9-27.4-99.6-2.8-11.3-7.1-26.9-9.6-34.7-2.5-7.9-8.1-30.6-12.4-50.5-4.4-20-8.9-38.7-10-41.7-1.2-3.2-2-7-1.8-9.4.3-3.6 1-4.6 5.6-8.4 6-4.9 5.3-4.6 8.5-3.4zm21.4 10.5c1 1.3 2.8 7.1 4.1 13.2 1.2 6 3.6 15 5.2 20 1.7 5 3 9.8 3 10.8 0 .9 2.9 10.3 6.4 20.9 3.6 10.5 7.9 24.4 9.6 30.8 1.7 6.4 5.5 18.8 8.6 27.5 8.7 24.8 43.9 153.6 50.9 186.1 3.7 17.4 4.1 20.8 2.4 21.8-1.6 1.1-5.7-3.3-7.3-7.9-3.6-9.8-8.8-28.2-11-38.7-2.4-11.5-8.4-32.3-19.5-67.6-3.3-10.6-6.8-22.9-7.7-27.5-.9-4.6-4.5-18.2-7.9-30.3-7.5-26.4-14.1-52.8-19-76.5-4.3-20.5-10.3-42.8-18-66.7-3-9.4-5.5-17.4-5.5-17.7 0-1.6 4.1-.3 5.7 1.8zm-39.7 25.8c2.3 9.4 7 29.2 10.5 44.2 3.5 14.9 12.2 47.6 19.3 72.6 27.2 94.9 33.5 118.3 39.2 144.7 3.3 14.9 6.8 31.1 7.9 35.8 1.2 4.8 2.1 9.9 2.1 11.4 0 3.8-4.1 7.5-7.3 6.7-3.7-.9-5.6-4.7-6.7-13.3-.6-4.3-6.9-27.4-14-51.3s-14-48-15.4-53.5c-4.2-16.9-12.3-53-16.6-74-2.2-11-6.2-28.1-8.9-38-2.7-9.9-5.7-21.5-6.6-25.9-.9-4.3-2.6-10.4-3.6-13.5-1.1-3.1-2.4-7.4-2.9-9.6-.4-2.2-3.1-12.3-5.9-22.4-2.8-10.1-5.1-19.5-5.1-20.8 0-5 5.5-11.8 8.5-10.6.8.3 3.1 7.6 5.5 17.5zm789.7 6.2c-.8 28.7-4 50.3-10.2 67.6-3.4 9.8-14.7 32.5-20.4 41.3-2.8 4.3-5.1 8.6-5.1 9.7 0 2.8-1.8 7-3 7-4 0-14.7-20-20.9-39l-4.7-14.5 9-10.5c4.9-5.8 10-11.3 11.3-12.3 3-2.4 10-12.4 14.8-21.2 2.1-3.9 5.9-10.2 8.5-14 7.3-10.9 7.7-11.8 12.6-23.7 7.8-18.9 8.9-17.6 8.1 9.6zm44.7-18.4c4.9 5.5 16.6 29 17.3 34.9.5 4.4-.1 5.8-8.2 22.1-8.1 16.1-10 19.1-24.5 37.5-15.8 20.1-26.5 31.5-29.4 31.5-.9 0-1.6.8-1.6 2 0 1.3-1 2.4-2.7 3.1-1.6.6-4 2.2-5.5 3.6-5 4.8-3.7 1.9 2.9-6.2 19.3-24 33.3-52.6 40.2-82.2 1.8-7.6 6.1-42 6.1-48.6 0-2.7 1.4-2.1 5.4 2.3zM969 1521.6c8.6 33.1 20.3 59.4 38.6 87.1 4.1 6.1 7.9 12.4 8.5 14 .5 1.5 2.5 4.4 4.3 6.3 1.8 1.9 5.7 7 8.7 11.4 2.9 4.3 8.3 11.1 12 15l6.7 7.2 7.1 28.4c3.9 15.7 9.6 37.3 12.6 48 5.3 18.4 9.5 36.8 9.5 41.7 0 4.3-4.5 2.8-14.6-4.8-17.5-13.1-35.7-32.3-46.3-48.9-12.3-19.2-42.5-92.5-48.2-117-1.1-4.7-6.5-20.7-12.1-35.7-7.7-21-10-28.3-10-32.1.1-5.9 5.3-19.5 11.8-30.7 4-6.7 4.8-7.6 6-6.3.8.8 3.2 8.1 5.4 16.4zm40.1-8.4c3.7 7.2 29.4 103.8 30.5 114.5.9 8-.9 8.4-5.9 1.5-2-2.6-4.9-6-6.5-7.6-1.7-1.6-4-5.2-5.2-8.2-1.2-2.9-2.8-5.5-3.5-5.8-1.7-.6-7.9-9.7-14.4-21.3-8.9-15.8-20.1-44.1-20.1-50.8 0-2.9 19.2-26.5 21.5-26.5.8 0 2.4 1.9 3.6 4.2zm880.9 37c1.4 3 2 6.6 2 11.5v7.2l-7.9 9.8c-9.2 11.4-26.9 28.9-36 35.6-5.6 4.2-9.1 5.8-9.1 4.2 0-.3 3.3-4.5 7.3-9.4 13.1-15.6 25.8-34.6 35.3-52.5 3.1-5.8 5.8-10.6 6-10.6.3 0 1.4 1.9 2.4 4.2zm-1252.7 9c4.4 3.3 4.8 48.2.7 75.3-2.9 19-5.7 31.8-8.5 38.1-2.2 5-2.5 5.3-7 6-6.2.9-7.3-.3-5.6-5.9.7-2.3 1.9-6.5 2.7-9.2 4.5-15.4 9.8-56.8 11-85.5.5-12.6 1-16.9 2.2-18.3 1.8-2 2.3-2.1 4.5-.5zm304 7.1c.9 2.3 5.2 14.1 9.5 26.2 4.4 12.1 13.8 37.5 20.9 56.5 12.2 32.3 18.4 50.4 33.2 96.2 3.3 10.3 7.4 21.5 9.2 25 1.8 3.5 5.4 11.4 8.1 17.7 2.6 6.2 5.7 12.6 6.8 14.2 1.2 1.5 3.2 5.3 4.5 8.3 3.6 8.2 25.7 35.1 54.5 66.6 5.8 6.3 11.3 12.6 12.2 14 .8 1.4 6.8 8.8 13.3 16.5 8.5 10.2 12.8 16.2 15.6 22.1 4.5 9.5 4.7 11.4 1.7 17.4-3.3 6.3-6.8 8.5-13.2 8.4-5.7-.2-10.5-2.2-20.1-8.7-3.3-2.3-13-7.3-21.5-11.3-23.7-10.9-29-13.8-45.9-24.6-34.7-22.5-44.6-29.5-52.9-37.8-7.6-7.6-8.4-8.8-10.3-15.4-1.1-3.9-3.5-10.5-5.4-14.6-1.8-4.1-4.7-11.6-6.5-16.5-1.8-5-5.8-14-9-20-3.2-6.1-8.9-18-12.8-26.5-6.1-13.4-7.6-18.1-11.6-35-10.5-45-16.1-82.1-17-111.9-.6-18.3-.5-19.6 1.3-21.5 1.1-1.2 7.9-12 15.1-24.1 16.9-28.2 15.8-26.5 17.4-25.9.8.3 2.1 2.4 2.9 4.7zm950.7 29.1c0 10.2-4.2 25.6-10 36.4-6.1 11.5-12.8 19.1-24.4 27.7-15.9 11.8-16.4 12-27.6 12-8.4 0-10.5-.4-18-3.3-12-4.7-22-12.9-22-18.2 0-.5 1.7-1 3.8-1 2.2 0 6.5-.9 9.7-2 3.6-1.2 8.4-2 12.5-2 9.3 0 13.5-1.8 23.5-10 4.8-3.9 11.3-8.9 14.5-11 3.2-2.2 12.2-10.7 20.1-19 7.9-8.2 15.2-15 16.2-15 1.4 0 1.7.9 1.7 5.4zm-1237.3 58.4.6 24.9-2.4 1.6c-1.3.9-4.8 1.7-7.8 1.8-6.9.4-8.7-1.5-6.5-6.8.9-2 2.7-9.5 4-16.7 2.6-13.4 7.1-32.3 8.1-34 .3-.5 1.2.3 1.9 1.7 1 1.8 1.6 9.6 2.1 27.5zm239.8-26.6c.2.7 1.2 8.3 2 16.8 3.3 32.5 10.3 79.4 13.6 91.4 1 3.9 2.3 12.9 2.9 20 3.4 43.1 10.6 90.5 15.7 103.6 6.5 16.5 10.6 23.1 34.9 57 7.7 10.7 18.9 26.7 24.9 35.4 9.7 14.3 10.9 16.5 11.3 21.1.5 5.5-1.2 8.5-4.7 8.5-5.6 0-24.5-9.5-35.3-17.7-4.6-3.4-11.7-8.6-15.8-11.4-25.3-17.5-46.7-37.7-51.5-48.5-4-9-9.1-40.6-11.5-71.2-1.2-14.1-3-35.4-4.1-47.2-3.4-37.3-3.8-45.4-4.5-92.7l-.7-46.3 10.4-9.9c5.7-5.5 10.8-10 11.2-10.1.4 0 1 .6 1.2 1.2zm-69.1 33.7c1.5.6 1.1 1.4-3.5 5.6-12.2 10.9-34.8 25.4-57.8 36.9-9.5 4.8-35.7 15.6-37.8 15.6-2 0-1.5-3 1.6-9.5 10.2-21.5 34.4-39.9 63.6-48.2 7.1-2 9.4-2.2 20-1.6 6.6.3 12.8.9 13.9 1.2zm38.6 43.9c0 45.1.6 57.1 4.7 94.2 2.5 22.9 2.4 33.2-.6 40-10 22.5-28 35.8-41.6 30.6-8.9-3.4-13.6-12.3-13.6-25.8 0-7.3.8-11.9 5.1-28.5 9.2-35.4 23.6-86.1 33.6-118.3 2.5-8 5.6-19.4 7-25.3 4.8-21.8 5.4-18.2 5.4 33.1zm-17.5-22.8c-5.9 21.8-40.5 139.3-41.8 142-.7 1.4-3.5 4.8-6.3 7.7-4 4-6.4 5.5-10.9 6.8-7 2.1-14 1.3-15.5-1.6-.6-1-1.7-1.9-2.4-1.9-1.5 0-7.1-8-11.1-16-2.6-5.1-2.7-5.6-1.6-12.7 1-6.8 1.6-8.2 8.1-17.1 3.8-5.3 9-13.3 11.6-17.7 6.2-10.4 17.8-27.9 22.1-33.2 1.8-2.3 9.2-13.9 16.4-25.8 7.1-11.9 17.6-28.5 23.2-36.8l10.1-15.2.9 4c.7 3.3.2 6.4-2.8 17.5zm-24.5.1c0 3.4-27.3 48.2-36.7 60.4-4.3 5.5-10.1 13.8-12.8 18.5-4.8 8.2-17.2 25.6-20.9 29.3-2 1.9-5.5 1.5-9.6-1.2-1.4-.9-3.6-1.8-4.9-2.1-5.1-1.1-11.8-15-14.1-29.5-1.3-7.7-1.3-19.6-.1-22.8 1.4-3.6 8.1-7.7 20.6-12.6 16.4-6.4 38.3-17.5 53.5-27.2 24.3-15.4 25-15.8 25-12.8zm343.3 62.6c1.5.7 9.6 3.4 18.1 5.8 13.6 4 17.8 4.7 36.7 6.5 22.9 2.1 24.4 2.6 25.1 8 .5 4.6-1.3 22.4-2.7 25.7-1.6 3.9-11.5 11.4-20.1 15.4-9.6 4.4-17.3 6-29.4 6-13.1 0-16.1-1.2-19-7.4-1.8-3.7-16-58.7-16-61.7 0-1.3 2.8-.6 7.3 1.7zm-139.6 12.3c3.7 4.4 16.6 16.4 28.5 26.7 17.2 14.7 21.8 19.2 21.8 21.1 0 4-3.1 9.4-8.6 14.9-5.4 5.4-8.5 6.5-11.6 4-4.2-3.3-15.4-18.8-19.7-27.5-4.2-8.5-19.1-44.6-19.1-46.5 0-2.1 2.6.1 8.7 7.3zm662.2-.7c.8 2.1 0 10.3-1.4 13.9-1.5 3.9-7.5 2.9-7.5-1.3 0-2.3 6.1-14.9 7.2-14.9.5 0 1.2 1 1.7 2.3zm-746.6 63.1c5.7 11.7 9.3 20.6 14.1 34.9 1.9 5.9 5 12.8 6.7 15.5 5.4 7.9 17.9 20 26.6 25.8 4.6 3.1 8.3 5.9 8.3 6.3 0 1.6-5.9 8.8-10 12.4-7 6-8.8 5.4-15.9-5.1-3.3-4.9-8.6-12.2-11.9-16.3-3.3-4.1-7.3-10.1-9-13.4-1.6-3.3-4.9-9.2-7.1-13-7.6-12.9-12.5-32.2-13.6-53.1l-.6-11.9 3.8 4.1c2.1 2.3 6 8.5 8.6 13.8zm146.5 1.9c1.2 2.9 2.2 5.7 2.2 6.3 0 .6 1.8 6.7 4 13.5l3.9 12.4 7.7 6.5c8.5 7.3 26.3 26.8 29.7 32.6 1.1 1.9 3.8 21.3 3.5 25.1l-.3 3.7-12-14.4c-14-16.9-35.2-41.4-47.7-55.2-4.8-5.3-9-10.9-9.4-12.4-.5-2.1 0-4.2 2.2-8.2 4.1-7.5 11.1-16.2 12.6-15.6.7.2 2.3 2.8 3.6 5.7zm57.1 2.5c1.5 1.5 3.6 5.2 4.6 8.2 2.3 7.1 3.1 8 7 8 2.7 0 3.5-.5 4.5-3 3-7.2 7-5.3 7 3.4 0 4.5-2.9 31.4-4.6 41.7-.7 4.6-3.3 5.9-11.9 5.9h-6.3l-6.4-7.3c-3.6-3.9-7.8-9-9.4-11.2-1.6-2.2-6.3-7.4-10.6-11.5l-7.6-7.5-.7-6.6c-1-9.6 1.8-13.7 6.2-9 1 1 2.7 2 3.7 2.2 1.3.3 2.3 1.9 3.3 5.1 1.1 3.9 1.8 4.8 3.6 4.8 1.2 0 2.7-.4 3.3-.8.7-.4 1.7-5.6 2.4-11.7.6-6 1.6-11.5 2.2-12.2 1.8-2.3 6.7-1.5 9.7 1.5zm-382.6 19.8c1.8 1 4.7 2.8 6.5 4.2 4.8 3.7 15.4 4.2 23.7 1.3 9.7-3.5 9.5-3.5 9.5-1.7 0 .9 1.6 5.9 3.6 11.1 5.9 15.3 13.4 22.1 25.6 23.2 3.4.4 5.8 1.1 5.8 1.7 0 .7 1.1 8.6 2.3 17.6 2.2 15.1 2.5 25 .8 25-.4 0-4-2.7-8-6-10.3-8.4-20.2-13.6-28.1-14.9-7.6-1.3-25.3-1.3-32.5-.2-2.9.5-5.8.5-7.1-.1-2.2-1-2.4-2.8-7.3-50.3-.7-7.2-.1-12.5 1.4-12.5.3 0 2 .7 3.8 1.6zm775.8 5.4c6.5 1.2 18.6 7 21.5 10.2 1.1 1.3 3.4 5.7 5.1 9.8 2.6 6.3 3.5 10.6 5.2 26.5 5 44.2 4.5 62.3-2.6 97-2.4 12.1-5.3 25.5-6.4 29.9-2.2 8.6-8.7 25.6-9.8 25.6-1.4 0-4.8-4.5-5.5-7-1.2-5.1-6.7-13.1-11.4-16.4-5.9-4.4-14.1-7-19-6.2-5.9.9-16.3 6.6-21.2 11.5-11.3 11.4-22 41.5-22 62.2 0 3.7-.3 7-.7 7.2-1.3.8-11.9-2.9-17-5.9-8.4-4.9-14.2-11.2-18.9-20.6-4-7.9-4.7-10.7-7.5-26.6-4.1-23.8-4.6-27.5-5.9-43.7-1.9-23.4-5.8-48.4-8.4-54.1-3.1-6.8-8.8-12.9-15.4-16.7-3-1.6-5.6-3.6-5.9-4.4-.4-.9 3.2-5.3 9.3-11.6 5.5-5.6 12.9-14.1 16.6-19 8.6-11 10.3-11.3 11.6-1.9.6 3.8 1.3 5 4.1 6.9 1.9 1.3 3.7 2.3 4 2.3.4 0 1.5-1.7 2.6-3.7 6.4-12 25.4-33.1 36-39.9 7-4.4 18.1-8.8 27-10.7 8.2-1.8 26.9-2.1 34.6-.7zm51.9 2c0 3.8-9.3 20.4-11.1 19.8-.6-.2-2.2-2.9-3.6-6-2.4-5.4-2.5-5.9-1-8.2 1.7-2.5 10.9-7.6 13.9-7.6 1.1 0 1.8.7 1.8 2zm-717 8.4c1.4 3.9 5.9 27.8 6.6 35.6.5 4.8 1.3 7.8 2.4 8.9 1 .9 2 2.9 2.4 4.5.7 2.9 5 7.9 20 23.3 4.4 4.5 7.7 8.5 7.4 8.8-.9.9-50.4 13.5-52.8 13.5-1.2 0-2.3-.8-2.7-1.8-.3-.9-1.4-3.6-2.5-5.9-2.4-5.3-4-15.6-3.9-25 .1-3.9-.7-13.3-1.8-21-2.5-17.7-2.1-19.9 4.5-25.1 2.8-2.2 8-7.2 11.5-11.1 3.5-3.9 6.7-7.1 7.1-7.1.5 0 1.3 1.1 1.8 2.4zm-201 25.8 3.3 1.1-2.2 1.9c-4 3.2-11.1 1.7-11.1-2.2 0-1.6.7-2 3.4-2 1.8 0 4.8.5 6.6 1.2zm489.1 17.9c1.8 1.2 4.1 4.5 5.4 7.3 4.5 10.1 12.5 32.7 12.5 35.1 0 1.8-1 3.1-3.2 4.5-3.3 2-15.9 4.6-18.2 3.7-1.6-.6-4.9-14-6.5-26-1.3-9-1.5-26-.3-27.1 1.2-1.3 7 .1 10.3 2.5zm233.2 38.3c2.1.8 4.7 2.2 5.8 3.2 5.8 5.3 9.9 22 11.9 48.9.6 8.2 1.5 18.6 2 23 .6 4.4 1 10.5 1 13.6 0 7.7 8.9 43.3 12.2 49 9.8 16.6 30.8 32.2 45.7 33.8l5.6.6 1.2 5c2.4 9.4 3.6 22 3 31.3-.5 8.8-.9 9.9-6.5 21.5-5 10.5-6.7 12.9-11.5 17-3 2.7-9 6.8-13.3 9.2-8.8 5.1-13.2 5.6-21.9 2.9-8.1-2.5-19.2-2.2-25.8.9-9.4 4.3-18.3 14-20.1 21.9-.8 3.6 1.5 9.2 4.8 11.3 1.9 1.3 3.7 1.6 6.5 1.1 4.4-.7 5.2 0 11.6 9.7 6.5 10 20.7 18.2 33.6 19.4 5.7.6 14.3-.9 18.9-3.2 2.2-1.1 50.7-10.9 60-12.1 3.4-.5 3.6-.3 7 5.7 1.9 3.4 5.8 8.5 8.6 11.4l5.2 5.2-10.2.7c-5.5.3-24.5 1.1-42.1 1.7-33.8 1.1-34.7 1.3-39.5 6.4-2.2 2.3-2.5 3.7-2.8 10.8-.2 4.5 1.7 42.4 4.2 84.2 2.5 41.8 4.6 79.7 4.6 84.3 0 9.9-2.3 21.1-5.2 24.7-4.4 5.6-13.3 7.7-20.1 4.7-8.1-3.6-10.9-11.7-12.8-37.2-.7-9.5-1.7-17-2.7-19.3-1.8-4.5-5.8-8.1-10.4-9.5-6.4-2-33.6-3.7-59.3-3.7-23.5 0-26.4.2-29.8 1.9-5 2.5-8.4 7.1-9.9 13.3l-1.2 4.9-4-2.2c-4-2.2-5.6-2.3-50.6-3.8-91.9-3-91.1-3-94.7-.7-4.7 3-5.9 6.2-7.7 20.6-.8 7.1-2.3 17.9-3.2 23.8l-1.7 10.9-6.1-.7c-8.8-.9-47.4-8-48.2-8.8-.4-.4 1-9.6 3-20.4 2.1-10.9 6.7-35.5 10.2-54.7 3.5-19.2 6.6-35.2 6.9-35.5.3-.3 10.2 1.4 22.1 3.8 27.4 5.5 32.6 6 37.1 3.6 1.8-1 4.2-3.2 5.2-4.9 2.5-4 12.1-52.1 12.8-63.7l.6-8.6-3.8-4.1c-2.4-2.7-5.1-4.6-7.8-5.3l-4-1.1 2.9-2.9c3.7-3.7 12.9-5.7 30.4-6.5 12.3-.6 12.5-.6 16.3 2 2.2 1.5 6.5 4 9.8 5.6 5.4 2.8 6.6 3 16.6 3 11.5 0 22-1.8 27.5-4.5 10.3-5.3 20.9-16.7 24.2-26 .9-2.5 2.3-6.5 3.2-9 .9-2.5 1.9-4.5 2.2-4.5.4 0 1.8 1.6 3.2 3.6 2.3 3.5 2.6 3.6 7.2 3.1 10.5-1.3 14.8-6.1 14.8-17 0-12.9-3.2-19.7-13.3-27.8-10.8-8.7-13.8-9.8-29.7-11-13.2-1-14.6-.9-21 1-3.8 1.2-7.2 2.6-7.5 3.1-.4.6-3.9 2.7-7.8 4.7-4 1.9-10.3 5.6-14.2 8.1-10.3 6.6-14.2 8.2-21 8.2-7.8 0-14.5-3.7-20.3-11.2-4.7-6.2-6.2-11.4-8.7-30.3-2.6-19.7-2-39 2.1-74.4 1.4-12.3 1.9-14.2 5.9-22 8.2-16.3 15.6-25.3 36.5-44.3 36.4-33 47.1-45 56.4-63.6l3.6-7.2h11.8c13.7-.1 29-3 42.2-8 4.7-1.8 9.9-3.7 11.5-4.3 1.7-.6 7-3.9 12-7.2 11.6-7.7 20.7-10 28.8-7.1zm131.5 88c7.1 3.7 13.2 15.3 13.2 25.1 0 6.4 2.7 13.5 14.3 37.8 8.9 18.6 19.2 37.4 30.5 56.2 13.6 22.4 18.2 28.8 28.2 39.1l9.3 9.6 13.6 5.5c14.2 5.7 45.1 16.3 47.6 16.3 2.1 0 1.8 1.7-.4 2.3-1 .2-4.1.2-6.9-.1-3.6-.3-7.2.2-12.4 1.8-9.6 3-25.4 3.4-34.8.8-13.4-3.5-30.5-12.1-41.2-20.6-5-3.9-25.4-28.5-28.7-34.5-2.4-4.4-2.9-4.7-6.1-4.5-3.1.3-3.5.7-3.8 3.3-.4 4.2 6.3 14.3 20.7 31.3 7.5 8.9 13.2 14.5 16.8 16.9 16.8 10.7 38.9 20.3 47 20.3h5.2l-.5 9.2c-.5 8.9-.4 9.4 2 12 3.1 3.5 8.2 4.3 16.6 2.8 7.5-1.4 26.7-1.4 32.4-.1 3.8.9 5.6 2.4 5.6 4.8 0 1.8-6.6 8.9-10.3 11.2-5.4 3.2-18.1 5.5-31.2 5.6-10.5 0-13.1-.3-20.3-2.8-8.1-2.6-8.9-2.7-30.7-2.7h-22.3l-14.1-4.8c-16-5.6-22.4-9.7-27.6-17.9-4.4-6.7-16.6-34.7-19.5-44.3-2.5-8.6-8.5-22.1-10.3-23.2-.7-.4-2-.8-2.9-.8-3.9 0-3.1 4.6 4.6 27.3 4.2 12.3 7.4 23.1 7 24-.7 1.9-.4 1.8-16.4 5.2-6.9 1.5-23 5.1-35.8 8.1l-23.4 5.5-6.1-1.6c-11.7-3-20.2-10.8-22-20.2-.6-3.1-.4-3.3 3.9-5.2 2.5-1.2 6.2-3.4 8.3-5 3.9-3.1 23.5-13.1 25.6-13.1 2.3 0 16-9.7 21.2-15 12.7-12.7 20.3-31 20.3-48.5 0-10.9-4.9-36.4-9.4-49.3-3.6-10.2 4.5-43.1 13.4-54.6 4.8-6.4 9.6-10.9 13.5-12.9 3.8-2 12.7-2.2 16.3-.3zm-369.3 23.9c7.7 4 13 10 17 19.7l3.5 8.5-1.5 19.5c-3.6 46-3.6 75.1.1 95.3.9 5.3 1.5 10 1.2 10.3-.3.3-3-.7-5.9-2.2-5.6-2.8-27.1-8.4-32.5-8.4-1.8 0-6.6.7-10.9 1.6-4.2.9-7.9 1.3-8.2 1-.4-.3 0-5.9.6-12.3.8-7.5 1.4-30.4 1.6-62.3l.2-50.5 3.2-8.2c2.4-6.1 4.2-9.1 7.3-11.8l4.1-3.7 7.6.4c5.6.4 8.9 1.2 12.6 3.1zm853 127.6c10.3 2.9 24.3 9.6 32.3 15.5 7.1 5.3 16.5 17.3 21.2 27.1 5.4 11.2 7.3 21.1 6.8 34.4-.4 9.8-1 12.9-3.6 19.9-3.5 9.5-8.6 19-13.7 25.7-3.8 5-4.1 5.5-2.3 5.5.6 0 6.8 2.7 13.6 6.1 11.5 5.6 13.3 6.8 21.6 15.2 14.8 14.9 20.8 29.7 20.9 51.7.1 13.7-2.1 23-8.6 35.4-7.6 14.8-29.5 34.7-52.5 47.8-22.7 13-77.8 33.3-125.2 46.3-14.4 3.9-16.7 4.3-17.9 3-1.7-1.7-4.9-12.4-37.6-125.5-13.4-46.5-25.5-88.2-26.9-92.8l-2.4-8.2 2.7-.6c10-2.3 14.4-3.8 20.6-6.9 3.9-1.9 7.5-3.5 8-3.5 1.8 0 11.3-10.3 14.7-16l3.3-5.4 10 .3c9.8.2 15.2-.8 16.7-3.2.4-.7.8-4.2.8-7.8 0-6.1-.3-7-4-12.1-2.2-3.1-5.9-6.7-8.3-8.1-2.4-1.4-5-3.3-5.7-4.2-3.4-4.1-20.1-10.6-32.5-12.6-8.5-1.3-26.4-.7-33 1.2-2.2.6-5.9 2.4-8.2 4-4 2.7-4.3 2.7-5.3 1-1.7-3.3.5-4.3 27.5-12.1 40.4-11.6 80.3-20.4 105.5-23.4 1.9-.2 14.8-.3 28.5-.1 22.1.2 25.9.5 33 2.4zM824.2 2187c42.5 8.7 86.8 42 105.3 79.5 7.1 14.3 7.5 16.4 3.8 20.3-2.5 2.8-62.1 36.8-66.2 37.9-1.2.3-2.9-.9-5.1-3.4-32.8-37.9-49.6-50.8-67.8-52l-7.8-.6-2.7 3.2c-5.7 6.8-3.9 9.5 19.8 31.2 31.2 28.6 56.3 53.7 61.6 61.6 19.8 29.3 21.9 55.6 6.7 86.3-4.5 9.1-6.4 11.7-14.2 19.5-10.4 10.3-19.4 15.6-34.1 20.1-8.5 2.6-10.1 2.8-28 2.8-21.9 0-28.7-1-51.5-8-17.5-5.4-33.3-13.1-45.7-22.2-26.3-19.3-40.3-34.8-51.2-57-4.8-9.6-6.4-14.6-5.6-17.1 1-3.1 60.3-37.3 67.2-38.7 3.8-.7 3.1-1.4 18.8 17 14.9 17.4 19.7 22.1 29 28.5 9.9 6.9 15.2 9.1 23.3 9.8 7.4.6 12.2-1 14.2-4.6 2.5-4.8 0-13-5.7-18.2-1.5-1.5-8.2-6.7-14.9-11.6-27.3-20.4-53.9-44.5-62.4-57-6.1-8.7-11.8-21.3-14.6-31.8-2.6-10.1-2.4-29.3.4-39.8 8.9-32.9 38.3-52.8 85.5-57.7 11.5-1.2 30.4-.3 41.9 2zm321.8 20c7.3 3.7 14 13.5 14 20.5 0 4.3-2.7 7.5-10.8 13-10.5 7-14.3 6.3-29.1-5.6-10.9-8.8-12-11.4-7.7-17.9 3.3-4.9 5.8-6.6 15.5-10.2 8.3-3 11.9-3 18.1.2zm151.5 1c11.2 4.8 19.5 15.6 19.5 25.4 0 4.2-.2 4.6-2.4 4.6-1.3 0-5.4-1.3-9-3-9.4-4.2-18.1-6.7-27.7-8-12-1.6-12.4-1.7-15.8-4.6-2.3-1.9-3.1-3.4-3.1-5.7 0-4.5 3-8.8 7-10.3 4.9-1.9 25.9-.8 31.5 1.6zm123.3 1.8c.9.6-.4 2.1-4.3 4.9-4.4 3.3-6.6 4.2-11.6 4.8-3.3.4-6.3.4-6.6.1-1-1 3.9-5.6 8.7-8.2 4.5-2.3 11.3-3.1 13.8-1.6zm-244.1 14c2 4.7 1.8 22.1-.3 29.2-4.3 14.8-14.9 28.7-25.6 33.6-11.8 5.4-26.3 4.2-36.9-2.9-5.2-3.5-14.3-15-18.9-23.9-4.1-7.7-4.2-8.4-3.8-15.2.5-7.7 4.6-18.6 7-18.6.7 0 2.7 2.5 4.3 5.6 2.3 4.2 4.4 6.5 8.5 9.1 3 2 8.1 5.7 11.3 8.4 6.4 5.3 11.1 6.6 19.5 5.4 5.5-.8 8.7-2.5 19.1-10.4 5.4-4.1 8.2-7.1 9.5-10 1.8-3.8 1.8-4.4.2-9.9-2.5-9-2.2-10.2 1.5-6.6 1.7 1.6 3.8 4.4 4.6 6.2zm689.4-4.9c14.9 3.8 33 15 34.7 21.3l.9 3.3-4.9.9c-5.1.9-6.6.6-28.4-5.8-6.4-1.9-11.3-2.6-24-3-17.7-.7-23.8-1.6-26.2-4-1.5-1.5-1.5-1.8 0-4.3 2-3.4 9.5-7.7 16.8-9.8 7-1.9 20.7-1.4 31.1 1.4zm-835.2.1c8.1.9 10.5 1.6 18.5 5.6 11 5.6 19.9 6.9 28.7 4 2.8-1 5.3-1.5 5.6-1.2.3.2-.2 3.3-1.1 6.8-2.5 9.9-2.1 17.1 1.4 26.6 1.7 4.6 3 8.9 3 9.7 0 1.7-5.2 1.2-11.7-1.2-3.4-1.2-4.3-1.9-4.3-3.8 0-3.1-2.7-4.5-8.6-4.5-4.4 0-5.9.8-16.4 7.9-14.3 9.8-21.5 12.5-31.6 11.9-11.2-.7-22.1-6.6-26.1-14.1-2-4-.5-5.3 6.9-6.1 21.6-2.5 30.5-14.8 25.3-34.9-.8-3.2-1.5-6.2-1.5-6.7 0-1.2.2-1.2 11.9 0zm219 3.5c1.3 2.5 4.1 6 6.1 7.9 3.4 3.1 5 3.6 18.5 6.1l14.7 2.8-.4 6.6c-.9 11.7-6.4 21-16.6 27.7-6.8 4.6-14.3 6.4-26.2 6.3-7.7 0-8.9-.2-12.4-2.8-2.3-1.6-5.5-5.4-7.6-9.2-3.9-6.9-8.7-10.9-13.1-10.9-3.4 0-4.8 3.5-2.9 7 .7 1.2.8 2.6.3 3.1-.4.4-7.1 1.1-14.7 1.5-13.4.7-13.9.6-13.4-1.2.3-1 1.7-5.9 3.2-10.8 2.2-7.6 2.6-10.7 2.6-22.1v-13.4l5.1 3.5c11.6 7.8 23.3 8.3 36.6 1.5 4.3-2.2 9.2-4.9 10.8-6 4.7-3.2 6.7-2.7 9.4 2.4zm-244.4 0c3.5 1.8 4.2 2.7 5.7 7.7 2 6.8 1.2 11.1-2.9 15-2.3 2.2-5.7 3.3-18.8 6.2-8.8 1.9-19.9 4.6-24.7 5.9-7.7 2.2-8.9 2.3-10.7 1-2.9-2-2.6-5 1.2-12.4 5.9-11.7 18.5-21.7 31.3-24.8 5.7-1.5 14.3-.8 18.9 1.4zm690.2-.1c3.9 1.5 23.9 4.3 50.8 7.1 9.3 1 22.4 1.5 34.5 1.4 20.4-.2 24.3.4 25.3 4.1.7 2.9 8.1 7.1 14.9 8.6 3.5.7 13.5 1.8 22.3 2.4 19.3 1.3 26.2 2.4 28.6 4.6 1.8 1.6 1.8 1.8-.8 6.6-7.3 13.5-23.9 20.6-49.1 20.9-10.8.1-15-.3-27.8-3-8.2-1.7-18.4-4-22.5-5.1-4-1.1-14.4-2.9-22.9-4-24.5-3.2-23-2.9-23-5.9 0-1.5-.7-5.1-1.6-8.1-2.7-9.1-18.1-23.2-31.2-28.6-6.2-2.6-3.9-3.4 2.5-1zm-5.7 13.5c11.9 3.8 24.4 14.1 21.1 17.4-.8.8-2.2.8-5.4-.1-2.3-.7-4.6-1.4-5.2-1.5-.5-.1-1.5-.6-2.1-1-3.1-1.9-17.9-2.9-33.6-2.2-18.7.8-18.8.7-14.5-5.5 3-4.5 6.6-7 12.4-8.6 6.4-1.8 19-1.1 27.3 1.5zm-712.1 35.5c6.3 8.2 13.1 14 18.6 16.2 4.1 1.6 7.6 1.9 19.5 1.9 13.9-.1 14.9-.2 24-3.4 5.2-1.9 13.5-4.1 18.3-5.1l8.8-1.7 16.7 3.4c16 3.2 16.8 3.5 22.3 7.7 4.1 3.2 7.9 5 14.5 7 10.6 3.1 17.9 3.3 27.3.7 6.3-1.8 7.4-1.8 13.7-.5 13 2.7 13.2 2.9 10.9 15.2-5.4 29.9-9.9 50.9-11 52-1.5 1.6-11.4.4-42.8-5.5-12-2.2-20.1-3.3-20.7-2.7-.5.5-9.3 47.4-19.7 104.3-16.6 91.4-19 103.5-20.9 104.7-2 1.4-19.6-1.3-71.4-10.5-12-2.2-14.6-3.6-13.6-7.6.6-2.5 19.4-100.7 31.1-162.4 4.7-25 8.2-45.7 7.8-46.1-.4-.4-3.5-1.2-6.8-1.8-34-6.2-60.2-11.6-61.4-12.7-1.1-1.1-1-3 .4-12.1 2.8-18.3 7.3-40.5 8.5-41.9.7-.8 2.4-1.1 4.8-.8 2.2.2 6.1-.4 9.7-1.5 3.3-1.1 6.3-2 6.6-2.1.4-.1 2.5 2.3 4.8 5.3zm759.3 3.6c15.1 1.1 30.2 3.7 42.8 7.5 4.5 1.4 12.2 2.9 16.9 3.5 8.4 1 8.7 1.1 12.4 5.3 17.9 19.7 32.6 50.4 39.3 82.2 3.1 14.6 4.4 46.3 2.5 60.8-5.3 40-24.9 74-56.1 97.6-12.9 9.8-26.5 15.3-49.2 20.3-8.8 1.9-13.4 2.2-31.3 2.3-28.8 0-38.5-2.1-61.4-13.2-32.7-16-55.8-43.4-68.5-81.4-12.1-36.2-13.8-81.8-4.2-113.3 6.2-20.1 13.6-34.5 26.6-51.6 7.2-9.4 9.3-10.7 14.7-9.2 2.1.6 7.4 2.1 11.8 3.3 6.5 1.8 10.6 2.3 22 2.3 19.4 0 28.3-2.5 40.3-11.7 5.2-3.9 5.7-4.1 15-4.7 5.3-.4 10.4-.8 11.2-.8.8-.1 7.7.3 15.2.8zm-927.9 10.7c11.7 7.1 19.3 13.8 29.2 25.8 4.9 6 11.8 13.9 15.4 17.7 9.4 9.7 9.5 9.6 34.1-3.8 10.7-5.9 25.3-14 32.4-18 7.1-4.1 13.1-7.3 13.3-7 .2.2-.3 4.8-1.2 10.2-2.5 14.6-1 20.8 5.8 24 1.8.8 16 4.1 31.7 7.2 26.3 5.3 28.5 5.9 28.8 7.8.2 1.7-10.9 62.6-17.9 98.1-.9 4.4-1.4 5.3-3.1 5.3-4.2 0-66.1-20.2-81.1-26.5l-3.4-1.4-.6-11.4c-.9-14.5-4.4-28.5-10.1-40.2-9.3-19.1-19.6-30.6-60.3-67.2-15.6-14-28.3-25.7-28.3-26 0-1.7 8.4 1.3 15.3 5.4zm751.3-3.6c3.2 3 8.3 3.9 21.4 3.8 6.3-.1 12.7.2 14.3.6 2.7.7 3.5 1.9 1.8 2.9-1.5 1-11.7 16.9-16.5 25.8-8.3 15.6-15.7 39.1-17.2 55.1-1.6 17.1-2 12.7-5.9-58.3-.8-14.6-1.8-27.7-2.1-29.3-.7-3.3 1-3.6 4.2-.6zm-15.4 2.7c1.4 1.4 9 150.8 9 177.2 0 43.1-12.6 73.7-38.5 93.7-29.4 22.7-85.6 31.7-126.5 20.2-17.1-4.8-27.1-10.2-38.6-20.9-12.9-12.1-23.2-29.5-27.6-46.8-4.2-16.9-8.6-55.5-7.8-69.1.3-5.3.4-5.5 4.8-7.8 4.4-2.3 5-2.4 21.5-1.9 14.9.5 39.1 2.3 55.3 4.1 7 .8 7.7 2.5 8.6 19 1 18.3 2.8 27.3 6.9 34.8 7.9 14.4 20.5 18 37.1 10.4 5.9-2.7 8.8-6.2 12.2-14.6 2.1-5 2.4-7.2 2.4-21.5 0-8.7-1.8-51.4-4-94.9-2.2-43.5-3.7-79.4-3.2-79.9.4-.4 16.1-1.4 34.7-2.2 32.1-1.3 52.1-1.2 53.7.2zm279.5 5.7c.9 2.4-.1 2.7-1.5.5-.8-1.3-.8-2-.2-2 .6 0 1.3.7 1.7 1.5zm-1073.2 79.8c13.4 6.7 34.1 23.1 31.4 24.8-5.8 3.5-30.4-12.5-39.8-26l-2.4-3.3 2.4.7c1.3.4 5.1 2.1 8.4 3.8zm820 83.1c2.3 8.2 2.5 10 1.4 10.7-1.7 1.1-5.9 2.3-6.3 1.8-.5-.6-2.6-32.8-2.5-38.9 0-5.1.2-4.8 2.3 5.6 1.3 6.1 3.6 15.5 5.1 20.8zm-320.5-8.8c22.8.8 41.7 1.7 42 2 1.1 1.1.4 55.4-.7 56.5-.8.8-12.9.8-44.5 0-65.7-1.7-91.1-3-92.7-4.6-2.4-2.3-2.4-13.3-.1-33.5 1.2-10.7 2.7-20.4 3.2-21.4 1-1.8 2.1-1.9 26.2-1.2 13.8.3 43.8 1.3 66.6 2.2zm57.5 48.1c.7 5.9.6 6.3-1.3 6.3-1.2 0-2.4-.5-2.7-1-.4-.6-.3-6.3.1-12.8l.8-11.7 1.2 6.5c.7 3.6 1.6 9.3 1.9 12.7z"/><path d="M1086.9 422.9c-7.2 2.3-16.2 8.5-22.7 15.6-15.1 16.5-44.9 75.6-49.7 98.7-2 9.3-2 15.7.1 16.5 2.4.9 3.8-1.3 8.9-13.7 16.3-40.1 42.8-78.4 57.9-83.7 3.9-1.4 8.2-1.8 17.8-1.8h12.6l4.4 3.3c6.2 4.7 11.6 7.4 14.1 7 2-.3 2.2-.8 2.1-7.8 0-6.3-.5-8.4-3.1-13.5-3.8-7.3-10.7-15.2-17-19.4-4.2-2.8-5.4-3.1-12.2-3-4.4 0-10 .8-13.2 1.8zm19.9 9c4.8 2.4 13.2 11.4 13.2 14.1 0 2.4.1 2.4-6.1.4-4-1.3-7.5-1.6-17.2-1.1-15.1.6-20.7 2.3-28.8 8.6-3.5 2.8-6.5 4.8-6.7 4.6-.2-.2.9-2.5 2.4-5.2 3.6-6.2 12.6-15.2 18.8-18.8 8-4.7 18.2-5.8 24.4-2.6zM1086 543.3c-10.2 3.3-16 5.9-22.8 10.6-17 11.7-24.9 27.2-25.9 50.7-.5 10.7-.3 12.9 1.6 18.7 1.2 3.6 4 9.3 6.2 12.7 3.4 5.3 3.9 6.7 3.3 9.8-1.1 6-4.3 13.3-7.4 16.8-1.5 1.8-3.1 4.3-3.5 5.5-.4 1.2-6.2 7.7-12.9 14.3-7.1 7-14.4 15.4-17.4 19.9-6.4 9.8-10.4 21.8-10 30 .3 5.6.3 5.6 2.6 4.4 1.8-.9 3.3-3.8 6.1-12.3 5.5-16.5 10.4-23.7 26.2-38 19.3-17.5 28.3-22.2 53.7-27.9 8.5-1.9 23.8-4.8 34-6.6 10.9-1.8 24.2-4.9 31.9-7.3 11.6-3.6 13.3-4.4 13.3-6.2 0-2.4-1.6-4-4.5-4.6-2.3-.4-2.4-1.3-.5-14.3 2.3-16.1-.4-34.6-6.7-46.7-10.1-19.3-27.6-30.3-50.3-31.4-8.1-.4-10.6-.1-17 1.9zm35.3 9.9c1 .8 1.8 3.6 2.3 7.4l.6 6.1-3.5 2.1c-5.1 3.2-9.3 2.9-12.9-1-2.7-2.9-2.9-3.7-2.4-7.6.8-5.7 3.6-8.1 9.7-8.2 2.5 0 5.3.6 6.2 1.2zm-47.7 11.7c-7.3 26.1 2.7 44.2 28 50.5 8.5 2.2 11 2 17.4-1 11.6-5.4 19.5-14.6 23.4-27.6 1.5-4.8 2.8-7.4 3.9-7.6 1.1-.2 1.7.3 1.7 1.5 0 1 .8 3.8 1.7 6.3 1.3 3.4 1.7 8 1.7 19.5.1 15 .1 15.1-3.1 21.5-5.9 11.7-3.2 10.5-35.9 16.1-32.3 5.6-32.7 5.6-45.1-.2-8.2-3.9-14.7-10.4-18.6-18.7-2.7-5.8-3.2-8.1-3.5-16.6-.3-5.8.1-12.3.8-15.5 2-9.1 7.3-19.5 13.2-25.7 5.5-5.9 13.6-10.9 15.2-9.4.5.5.2 3.4-.8 6.9zm-9.6 86.9c2 1.6 2 1.9.6 3.1-.8.7-3.3 1.5-5.6 1.8-4.2.6-4.6.1-3.4-4.5.8-2.8 5.2-3 8.4-.4zM1204.6 631.3c-6.6 6.6-8.6 17.2-4.2 22.4 2.1 2.4 3.2 2.8 7.4 2.7 8.7-.1 14.2-6 14.2-15.1 0-7.4-2.7-10.4-10.7-11.8-3.7-.6-4.6-.3-6.7 1.8zm8.2 9.6c.4 2.7-1.4 5.1-3.9 5.1-2.3 0-2.5-2.7-.3-5.8 1.9-2.7 3.8-2.4 4.2.7zM1690.5 1041.7c-8.8 2.1-18.5 5.6-20 7.3-1.6 1.7-1.7 2.5-.7 5.8.7 2 1.3 4.8 1.4 6.2.2 1.9 1 2.6 3 2.8 2.6.3 25.7-5.2 29.1-7 2.4-1.2 2.2-5.5-.5-10.8-2.1-4.1-2.6-4.5-6.3-4.7-2.2 0-4.9.1-6 .4zM1943.3 2243.1c-7.5.9-18.1 3.8-18.9 5.1-.9 1.4 17.9 62 19.4 62.5.7.3 7.3-2.4 14.7-6.1 26-12.8 34.2-24.8 28.9-42.5-2.9-9.9-12.1-17-24.5-19.1-7.2-1.1-10.6-1.1-19.6.1zm24.4 12.9c5 2.3 6.6 3.6 8.2 6.9 3.6 7 3.1 8.3-6.1 14.9-11.8 8.4-20.9 14.4-21.2 14-1.1-1.2-10.6-34-10.6-36.3 0-1.4 12.8-3.3 19-2.7 2.5.2 7.3 1.7 10.7 3.2zM1968.3 2360.2c-5.7 1.2-10.3 2.6-10.3 3.2 0 2.1 16.3 60.1 17.2 61.1 1.3 1.5 13.1-2 22.8-6.7 10.2-5.1 18-12.3 21.7-20.4 4.4-9.8 2.1-21.7-6-30.6-7-7.7-26.5-10.5-45.4-6.6zm31 10.8c9.4 2 14.3 12.8 10.3 22.3-1.8 4.5-10.9 12.4-18.1 15.8-3.3 1.6-6.5 2.9-7.1 2.9-.6 0-3.6-8-6.7-17.8-7.8-24.7-7.6-22.8-3-24 3.9-1.1 17.9-.7 24.6.8zM1705 2340.2c-8.9 1-17.5 5.5-25 13-6.8 6.7-10.4 13.1-14.6 25.8-2.5 7.7-2.8 9.8-2.8 23.5-.1 17.4 1.4 23.7 9.2 39 3.5 6.9 6.4 10.9 12.6 17.1 12.3 12.4 21.5 16 38.3 15.2 7.7-.3 10.1-.9 15.8-3.7 18.1-8.9 29.1-29.2 30.2-55.7.8-17.7-2.9-32.1-12.1-47.3-4.1-6.7-15.2-17.7-21.6-21.3-8.5-4.8-19.2-6.8-30-5.6zm22.3 13.6c14.4 7.1 28.7 29.4 28.7 44.8 0 3.1-.3 3.3-12.2 8.4-13.4 5.8-47.6 19.4-57.6 23-7.4 2.7-7.1 2.9-10.3-7-3.3-10-3.8-27.2-1-38.1 4.6-18.3 12.6-28.2 26.9-33.6 2.4-.8 6.5-1.2 11.4-1 6.2.3 8.9 1 14.1 3.5zm29.7 65.5c0 18-8.7 33.7-22.6 40.8-6.2 3.1-7.6 3.4-15.3 3.4-7.2 0-9.5-.4-14.1-2.6-8.4-3.9-23.1-18.6-20.3-20.2.5-.2 7.9-3 16.6-6.3 8.6-3.2 24.2-9.5 34.5-14s19.3-8.2 20-8.3c.8-.1 1.2 2 1.2 7.2z"/></svg>